<?xml version="1.0" encoding="UTF-8"?>
<svg width="390px" height="440px" viewBox="0 0 390 440" version="1.1" xmlns="http://www.w3.org/2000/svg" xmlns:xlink="http://www.w3.org/1999/xlink">
    <!-- Generator: Sketch 41.2 (35397) - http://www.bohemiancoding.com/sketch -->
    <title>Mannetjes</title>
    <desc>Created with Sketch.</desc>
    <defs>
        <linearGradient x1="81.9181548%" y1="100%" x2="81.9181561%" y2="0%" id="linearGradient-1">
            <stop stop-color="#A9283C" offset="0%"></stop>
            <stop stop-color="#E5334E" offset="100%"></stop>
        </linearGradient>
    </defs>
    <g id="Page-1" stroke="none" stroke-width="1" fill="none" fill-rule="evenodd">
        <g id="Assets/App-Icon/iTunesArtwork" transform="translate(-60.000000, -36.000000)" fill="url(#linearGradient-1)">
            <g id="Icon">
                <g id="Mannetjes" transform="translate(60.000000, 36.000000)">
                    <path d="M195.941239,64.497992 C213.730591,64.497992 228.151709,50.0596247 228.151709,32.248996 C228.151709,14.4383673 213.730591,0 195.941239,0 C178.151888,0 163.730769,14.4383673 163.730769,32.248996 C163.730769,50.0596247 178.151888,64.497992 195.941239,64.497992 Z M162.377978,52.9611248 C162.377978,52.9611248 171.100268,73.6244524 197.236851,71.9903157 C223.373435,70.3561791 233.086501,47.2411051 233.086501,47.2411051 C233.086501,47.2411051 262.417147,69.5299059 270.867947,100.41498 C279.318747,131.300055 273.35415,149.103669 270.867947,157.611113 C268.381744,166.118557 260.100289,164.861041 260.100289,164.861041 C260.100289,164.861041 253.144634,162.588949 252.510469,158.423041 C251.876304,154.257133 252.225482,142.694463 250.939938,135.784455 C249.654394,128.874446 243.936363,112.335839 243.936363,112.335839 L178.502965,112.543761 C178.502965,112.543761 163.375932,100.0442 155.251875,95.9783085 C147.127819,91.9124173 129.895452,88.2168919 129.895452,88.2168919 C129.895452,88.2168919 132.454923,77.8102418 142.382907,66.2941204 C152.310891,54.777999 162.377978,52.9611248 162.377978,52.9611248 Z M329.14176,142.147317 C338.036435,157.553347 357.750988,162.823219 373.175444,153.917904 C388.599901,145.01259 393.893335,125.304351 384.998659,109.898321 C376.103983,94.4922909 356.389431,89.2224194 340.964974,98.1277337 C325.540517,107.033048 320.247084,126.741287 329.14176,142.147317 Z M322.427738,107.31911 C322.427738,107.31911 308.893916,125.204498 323.377412,147.022376 C337.860907,168.840253 362.735681,165.694478 362.735681,165.694478 C362.735681,165.694478 358.098337,202.239963 335.576478,225.001107 C313.054619,247.762252 294.653938,251.498567 286.043174,253.599174 C277.432409,255.699781 274.380723,247.899072 274.380723,247.899072 C274.380723,247.899072 272.870585,240.739252 276.161285,238.107095 C279.451984,235.474938 289.640139,229.996001 294.98161,225.427682 C300.32308,220.859364 311.786919,207.638101 311.786919,207.638101 L278.890154,151.075077 C278.890154,151.075077 282.151576,131.724901 281.610712,122.656316 C281.069849,113.587731 275.654085,96.8163013 275.654085,96.8163013 C275.654085,96.8163013 285.946244,93.8295433 300.883489,96.6693687 C315.820735,99.5091941 322.427738,107.31911 322.427738,107.31911 Z M329.582999,296.324024 C320.688323,311.730054 325.981757,331.438293 341.406214,340.343607 C356.830671,349.248922 376.545223,343.97905 385.439899,328.57302 C394.334574,313.16699 389.041141,293.458751 373.616684,284.553437 C358.192227,275.648122 338.477675,280.917994 329.582999,296.324024 Z M356.432238,273.032684 C356.432238,273.032684 334.176127,270.254745 322.523039,293.706759 C310.869951,317.158772 326.031659,337.128071 326.031659,337.128071 C326.031659,337.128071 292.063668,351.384756 261.091009,343.260826 C230.11835,335.136896 217.682266,321.069596 211.557705,314.662759 C205.433144,308.255922 210.662912,301.71273 210.662912,301.71273 C210.662912,301.71273 216.108429,296.825002 220.033294,298.358753 C223.958159,299.892504 233.797136,305.976236 240.424151,308.317926 C247.051165,310.659616 264.233035,313.976961 264.233035,313.976961 L296.769668,257.206014 C296.769668,257.206014 315.158123,250.3554 322.741316,245.352706 C330.324509,240.350013 342.141111,227.274108 342.141111,227.274108 C342.141111,227.274108 349.873799,234.694 354.883061,249.049947 C359.892323,263.405894 356.432238,273.032684 356.432238,273.032684 Z M195.058761,375.502008 C177.269409,375.502008 162.848291,389.940375 162.848291,407.751004 C162.848291,425.561633 177.269409,440 195.058761,440 C212.848112,440 227.269231,425.561633 227.269231,407.751004 C227.269231,389.940375 212.848112,375.502008 195.058761,375.502008 Z M228.622022,387.038875 C228.622022,387.038875 219.899732,366.375548 193.763149,368.009684 C167.626565,369.643821 157.913499,392.758895 157.913499,392.758895 C157.913499,392.758895 128.582853,370.470094 120.132053,339.58502 C111.681253,308.699945 117.64585,290.896331 120.132053,282.388887 C122.618256,273.881443 130.899711,275.138959 130.899711,275.138959 C130.899711,275.138959 137.855366,277.411051 138.489531,281.576959 C139.123696,285.742867 138.774518,297.305537 140.060062,304.215545 C141.345606,311.125554 147.063637,327.664161 147.063637,327.664161 L212.497035,327.456239 C212.497035,327.456239 227.624068,339.9558 235.748125,344.021692 C243.872181,348.087583 261.104548,351.783108 261.104548,351.783108 C261.104548,351.783108 258.545077,362.189758 248.617093,373.70588 C238.689109,385.222001 228.622022,387.038875 228.622022,387.038875 Z M60.9287702,297.199059 C52.0340945,281.793029 32.3195423,276.523158 16.8950854,285.428472 C1.47062847,294.333786 -3.82280507,314.042025 5.07187064,329.448055 C13.9665463,344.854086 33.6810986,350.123957 49.1055554,341.218643 C64.5300123,332.313328 69.8234459,312.60509 60.9287702,297.199059 Z M67.6427923,332.027266 C67.6427923,332.027266 81.176614,314.141878 66.6931183,292.324001 C52.2096226,270.506124 27.3348483,273.651899 27.3348483,273.651899 C27.3348483,273.651899 31.9721928,237.106414 54.4940518,214.345269 C77.0159108,191.584124 95.4165921,187.847809 104.027356,185.747202 C112.63812,183.646595 115.689807,191.447304 115.689807,191.447304 C115.689807,191.447304 117.199945,198.607124 113.909245,201.239281 C110.618545,203.871438 100.43039,209.350376 95.08892,213.918694 C89.7474494,218.487012 78.2836106,231.708276 78.2836106,231.708276 L111.180375,288.2713 C111.180375,288.2713 107.918954,307.621476 108.459817,316.69006 C109.000681,325.758645 114.416445,342.530075 114.416445,342.530075 C114.416445,342.530075 104.124286,345.516833 89.1870405,342.677008 C74.249795,339.837182 67.6427923,332.027266 67.6427923,332.027266 Z M61.3700095,141.255284 C70.2646852,125.849254 64.9712517,106.141015 49.5467948,97.2357009 C34.1223379,88.3303866 14.4077857,93.6002581 5.51310995,109.006288 C-3.38156575,124.412319 1.91186779,144.120557 17.3363247,153.025872 C32.7607816,161.931186 52.4753338,156.661315 61.3700095,141.255284 Z M34.5207701,164.546624 C34.5207701,164.546624 56.7768816,167.324563 68.4299697,143.87255 C80.0830577,120.420536 64.9213493,100.451237 64.9213493,100.451237 C64.9213493,100.451237 98.8893403,86.1945524 129.861999,94.3184822 C160.834658,102.442412 173.270742,116.509712 179.395304,122.916549 C185.519865,129.323386 180.290096,135.866578 180.290096,135.866578 C180.290096,135.866578 174.844579,140.754306 170.919714,139.220555 C166.99485,137.686804 157.155873,131.603072 150.528858,129.261382 C143.901843,126.919692 126.719974,123.602348 126.719974,123.602348 L94.1833404,180.373294 C94.1833404,180.373294 75.7948859,187.223908 68.2116927,192.226602 C60.6284995,197.229295 48.8118973,210.3052 48.8118973,210.3052 C48.8118973,210.3052 41.0792095,202.885308 36.0699477,188.529361 C31.0606859,174.173414 34.5207701,164.546624 34.5207701,164.546624 Z" id="Combined-Shape"></path>
                </g>
            </g>
        </g>
    </g>
</svg>