<?xml version="1.0" standalone="no"?>
<!DOCTYPE svg PUBLIC "-//W3C//DTD SVG 20010904//EN"
 "http://www.w3.org/TR/2001/REC-SVG-20010904/DTD/svg10.dtd">
<svg version="1.0" xmlns="http://www.w3.org/2000/svg"
 width="700.000000pt" height="700.000000pt" viewBox="0 0 700.000000 700.000000"
 preserveAspectRatio="xMidYMid meet">
<metadata>
Created by potrace 1.11, written by Peter Selinger 2001-2013
</metadata>
<g transform="translate(0.000000,700.000000) scale(0.100000,-0.100000)"
fill="#000000" stroke="none">
<path d="M3376 6608 c3 -4 10 -6 15 -3 5 3 6 -1 3 -10 -5 -12 -9 -13 -20 -4
-8 6 -14 7 -14 2 0 -5 -9 -10 -20 -11 -46 -4 -51 -6 -46 -19 4 -8 -2 -13 -15
-13 -12 0 -23 -8 -26 -19 -3 -11 -11 -17 -18 -15 -7 3 -16 -4 -20 -15 -6 -20
-21 -26 -55 -21 -10 1 -9 -3 5 -13 11 -9 17 -19 12 -23 -4 -4 -7 -2 -7 4 0 7
-4 12 -10 12 -5 0 -9 -3 -9 -7 4 -25 -3 -42 -18 -45 -10 -2 -19 -13 -19 -26
-2 -38 -4 -42 -13 -42 -5 0 -7 10 -5 23 5 22 5 22 -6 -1 -5 -13 -11 -51 -13
-85 -2 -48 -6 -61 -17 -60 -12 2 -15 -11 -15 -66 0 -59 2 -68 16 -61 11 7 15
3 16 -13 5 -116 5 -117 32 -117 20 0 23 -2 11 -10 -13 -8 -12 -12 4 -27 10
-10 15 -12 11 -4 -5 9 -4 12 3 7 7 -4 12 -22 13 -39 0 -27 2 -29 9 -12 l9 20
1 -20 c1 -32 25 -55 58 -58 16 -1 28 -6 25 -10 -3 -5 -12 -6 -22 -3 -13 5 -12
3 2 -8 11 -8 27 -13 38 -11 13 3 19 -2 19 -16 0 -16 7 -19 43 -20 23 0 36 -3
29 -6 -6 -2 -10 -9 -7 -13 3 -5 13 -6 22 -3 9 4 14 2 10 -3 -8 -14 246 -13
256 1 4 6 11 5 18 -5 8 -12 9 -11 5 5 -6 20 2 24 62 28 19 1 14 17 -5 18 -10
1 -1 6 20 11 23 6 36 15 34 22 -3 7 7 13 26 14 41 3 43 5 46 51 0 10 10 21 22
24 12 3 18 10 14 16 -3 6 -1 11 4 11 6 0 11 5 11 11 0 5 -4 7 -10 4 -6 -4 -7
1 -3 11 6 16 7 16 18 0 11 -15 13 -14 14 9 1 14 3 36 4 49 1 13 7 22 14 19 6
-3 9 -12 6 -21 -4 -9 -3 -14 2 -10 4 4 8 31 10 61 1 30 5 59 9 65 4 7 1 12 -6
12 -9 1 -8 4 3 13 14 10 14 14 3 25 -10 9 -11 18 -4 32 6 10 6 21 1 24 -5 3
-7 24 -6 45 2 38 1 40 -19 29 -20 -11 -20 -10 -3 9 21 24 23 40 1 23 -8 -8
-14 -9 -13 -4 5 26 -2 54 -13 52 -7 -2 -13 4 -13 12 0 8 -8 18 -18 22 -9 4
-20 21 -23 38 -4 17 -13 30 -21 30 -8 0 -17 9 -20 19 -3 11 -11 17 -18 15 -7
-3 -15 4 -18 15 -3 14 -15 21 -38 23 -24 2 -33 7 -31 19 2 12 -6 16 -37 15
-33 -1 -38 1 -35 17 3 17 -6 18 -131 16 -74 -1 -132 -6 -129 -11z m244 -8 c0
-5 -2 -10 -4 -10 -3 0 -8 5 -11 10 -3 6 -1 10 4 10 6 0 11 -4 11 -10z m-510
-620 c0 -5 -5 -10 -11 -10 -5 0 -7 5 -4 10 3 6 8 10 11 10 2 0 4 -4 4 -10z
m724 -135 c3 -9 0 -15 -9 -15 -9 0 -12 6 -9 15 4 8 7 15 9 15 2 0 5 -7 9 -15z"/>
<path d="M3190 6499 c0 -5 5 -7 10 -4 6 3 10 8 10 11 0 2 -4 4 -10 4 -5 0 -10
-5 -10 -11z"/>
<path d="M3871 6434 c0 -11 3 -14 6 -6 3 7 2 16 -1 19 -3 4 -6 -2 -5 -13z"/>
<path d="M3047 6269 c9 -9 9 -16 3 -25 -7 -8 -6 -13 3 -17 10 -4 15 2 15 18 0
13 -8 27 -17 30 -13 5 -13 4 -4 -6z"/>
<path d="M3050 6070 c-9 -6 -10 -10 -3 -10 6 0 15 5 18 10 8 12 4 12 -15 0z"/>
<path d="M4040 5953 c11 -5 -12 -33 -29 -33 -5 0 -12 -4 -15 -9 -4 -5 4 -7 16
-3 14 3 19 2 14 -6 -4 -7 -14 -12 -22 -12 -8 0 -14 -9 -14 -19 0 -15 -5 -18
-22 -14 -20 5 -21 4 -8 -8 8 -8 13 -13 11 -12 -8 5 -46 -28 -46 -40 0 -6 -6
-12 -12 -12 -16 0 -21 -11 -9 -22 5 -5 6 -2 1 6 -5 10 -4 12 4 7 6 -4 9 -12 5
-17 -3 -5 -9 -7 -14 -4 -5 3 -11 1 -15 -4 -3 -6 -12 -8 -20 -4 -8 3 -15 0 -15
-7 0 -6 4 -9 9 -5 5 3 13 0 17 -6 4 -7 3 -9 -3 -6 -5 3 -21 0 -36 -8 -14 -7
-29 -10 -33 -7 -5 4 -2 -1 5 -10 12 -16 10 -18 -20 -19 -19 -1 -38 -1 -42 0
-5 1 -5 -3 -2 -9 4 -6 14 -9 22 -6 8 3 12 2 9 -3 -4 -7 -71 -19 -123 -23 -7
-1 -10 -5 -7 -9 2 -5 12 -6 22 -3 14 5 15 4 2 -5 -10 -7 -76 -11 -193 -10
-165 1 -205 7 -176 25 8 5 9 3 4 -6 -5 -9 -4 -11 4 -6 20 13 3 23 -35 21 -27
-1 -39 4 -51 21 -8 13 -21 20 -29 17 -10 -4 -12 0 -8 11 4 10 1 16 -9 16 -8 0
-28 7 -43 16 -23 13 -25 15 -6 11 12 -3 22 -1 22 4 0 5 -9 9 -20 9 -14 0 -20
6 -18 18 2 11 -3 16 -14 14 -12 -2 -18 4 -18 18 0 17 -10 24 -31 22 -4 -1 -6
6 -5 16 2 25 -92 25 -100 0 -5 -17 -26 -23 -64 -19 -13 2 -13 1 0 -8 12 -9 12
-11 -3 -17 -9 -3 -15 -10 -12 -14 3 -5 -4 -6 -15 -3 -12 3 -20 2 -19 -3 4 -23
-3 -32 -20 -27 -16 4 -19 1 -14 -18 5 -18 3 -21 -10 -16 -15 6 -21 -2 -14 -19
1 -4 -8 -10 -20 -15 -15 -5 -21 -14 -17 -24 4 -9 0 -15 -10 -15 -19 0 -40 -36
-30 -52 5 -7 1 -9 -12 -6 -16 4 -20 0 -19 -21 0 -19 -4 -25 -18 -23 -9 2 -17
-1 -16 -5 5 -30 -3 -63 -15 -63 -8 0 -18 -5 -22 -12 -4 -7 -3 -8 4 -4 7 4 12
2 12 -3 0 -6 -4 -11 -9 -11 -4 0 -8 -8 -8 -17 0 -44 -2 -46 -20 -32 -16 12
-17 12 -6 -2 7 -9 11 -18 8 -21 -3 -3 8 -4 25 -3 26 2 34 -4 32 -25 0 -3 30
-7 66 -8 37 -2 72 -8 77 -14 7 -8 6 -9 -4 -3 -9 5 -12 4 -7 -3 4 -6 14 -8 23
-5 10 4 14 2 10 -4 -4 -6 1 -10 11 -10 46 0 86 -5 75 -10 -20 -8 -15 -19 10
-20 49 -2 75 -8 71 -15 -3 -5 -9 -6 -13 -4 -4 3 -8 -1 -8 -8 0 -8 9 -11 24 -8
13 2 23 -1 23 -7 0 -7 5 -9 10 -6 6 3 10 -1 10 -9 0 -9 9 -17 20 -17 41 -3 45
-5 42 -23 -3 -14 1 -18 16 -14 14 4 22 0 25 -13 3 -11 12 -19 21 -19 9 0 16
-7 16 -15 0 -13 19 -20 43 -16 5 1 5 -4 1 -10 -5 -9 -2 -10 12 -6 18 7 18 6 1
-7 -16 -12 -15 -13 10 -13 15 0 29 -6 31 -12 2 -6 9 -8 15 -4 7 4 6 -1 -2 -11
-12 -15 -12 -17 0 -14 8 2 17 8 21 13 5 6 8 4 8 -5 0 -13 1 -13 10 0 8 12 10
12 10 1 0 -11 3 -11 17 0 14 12 15 12 9 1 -7 -11 -4 -12 13 -3 11 7 21 8 21 3
0 -13 34 -11 43 2 5 8 9 8 15 1 11 -17 47 -12 44 5 -2 13 -1 13 10 0 10 -12
39 -15 143 -14 72 0 136 4 143 8 7 4 12 3 12 -1 0 -10 41 -10 58 1 7 4 12 3
12 -3 0 -6 7 -8 15 -5 9 4 12 11 8 18 -5 7 -1 4 9 -6 19 -21 33 -24 22 -5 -5
9 -4 9 6 0 8 -8 20 -9 36 -3 15 6 24 6 24 0 0 -6 5 -10 11 -10 5 0 7 6 3 13
-5 9 -4 9 6 0 8 -8 20 -9 36 -3 15 6 24 6 24 0 0 -6 5 -10 11 -10 5 0 7 6 3
13 -5 9 -4 9 6 0 8 -8 20 -9 36 -3 15 6 24 6 24 0 0 -5 16 -7 35 -5 37 5 38 4
38 -66 0 -9 7 -16 16 -15 12 1 16 -7 15 -29 0 -16 4 -33 10 -37 8 -6 8 -8 0
-8 -6 0 -11 -6 -11 -14 0 -8 6 -12 13 -9 6 2 15 -1 20 -8 4 -7 3 -10 -4 -5 -6
3 -13 2 -17 -4 -3 -5 1 -10 9 -10 15 0 22 -44 17 -100 -1 -8 6 -4 14 10 10 14
14 17 11 7 -3 -10 -2 -27 4 -36 5 -10 6 -21 3 -25 -11 -11 -12 -36 -2 -36 5 0
9 -5 9 -11 0 -5 -4 -8 -8 -5 -10 6 -9 -30 1 -40 12 -12 8 -26 -5 -18 -7 5 -8
3 -2 -7 5 -8 9 -45 10 -84 3 -90 2 -87 17 -80 6 4 4 0 -5 -8 -10 -8 -15 -17
-11 -20 3 -4 12 -2 20 5 8 6 13 7 12 2 -5 -26 3 -42 22 -47 13 -4 19 -11 16
-20 -4 -10 7 -13 52 -12 31 1 67 5 81 10 24 7 24 8 5 16 -17 7 -16 8 8 8 20 1
27 6 27 21 0 17 9 24 31 22 3 0 4 16 4 36 -2 45 5 73 15 67 5 -3 12 0 16 6 4
7 3 9 -4 5 -6 -3 -13 -2 -17 4 -3 5 1 10 9 10 13 0 16 13 16 70 0 55 4 71 18
80 13 9 13 10 1 7 -13 -4 -16 3 -15 38 0 34 3 42 15 38 14 -4 14 -3 0 6 -12 8
-16 26 -16 71 0 37 3 56 8 48 6 -9 9 -9 9 -1 0 6 -5 15 -10 18 -6 4 -10 14 -9
23 1 10 1 43 0 74 -1 45 -4 56 -15 52 -8 -3 -17 -1 -20 4 -3 5 2 9 11 8 22 -2
27 19 8 37 -10 11 -16 37 -18 76 -2 56 -4 60 -22 55 l-20 -6 20 16 c11 8 16
16 10 16 -5 0 -3 5 5 11 13 9 13 10 0 6 -8 -2 -14 -11 -12 -18 2 -10 0 -11 -7
-3 -6 5 -12 34 -12 62 -1 46 -3 50 -15 35 -14 -18 -15 -16 -18 27 0 14 -5 30
-9 37 -4 6 -4 13 0 16 5 2 3 2 -4 1 -16 -4 -22 6 -25 45 -1 21 -7 30 -15 27
-7 -3 -13 0 -14 7 -3 47 -19 88 -19 48 0 -12 -4 -19 -10 -16 -6 4 -8 10 -5 14
2 5 -5 17 -16 27 -24 22 -47 60 -30 50 6 -4 11 -3 11 2 0 5 -9 12 -20 15 -13
3 -20 14 -20 30 0 14 -4 28 -9 31 -5 4 -7 -3 -4 -14 3 -12 0 -20 -8 -20 -7 0
-9 3 -6 6 3 4 1 16 -5 28 -7 11 -11 24 -10 29 1 4 -5 7 -13 7 -8 0 -15 9 -15
20 0 13 -7 20 -20 20 -14 0 -20 6 -18 18 2 10 -2 16 -10 14 -8 -1 -16 7 -19
18 -3 11 -14 20 -24 20 -12 0 -16 5 -13 15 6 13 -6 20 -28 16 -5 0 -8 8 -8 19
0 13 -7 20 -19 20 -14 0 -19 6 -16 18 2 11 -3 19 -10 19 -8 0 -11 -5 -8 -11 4
-6 -1 -5 -10 2 -9 8 -15 19 -14 24 1 6 -4 12 -11 14 -7 1 -8 0 -2 -3z m-80
-149 c0 -8 -19 -13 -24 -6 -3 5 1 9 9 9 8 0 15 -2 15 -3z m-1300 -450 c0 -8
-5 -12 -10 -9 -6 4 -8 11 -5 16 9 14 15 11 15 -7z m37 -10 c-3 -3 -12 -4 -19
-1 -8 3 -5 6 6 6 11 1 17 -2 13 -5z m1908 -294 c3 -5 1 -10 -4 -10 -6 0 -11 5
-11 10 0 6 2 10 4 10 3 0 8 -4 11 -10z m-861 -8 c2 -4 -5 -9 -17 -9 -17 -2
-19 0 -7 7 18 12 18 12 24 2z m420 0 c3 -5 -1 -9 -9 -9 -8 0 -12 4 -9 9 3 4 7
8 9 8 2 0 6 -4 9 -8z m437 -535 c-10 -9 -11 -8 -5 6 3 10 9 15 12 12 3 -3 0
-11 -7 -18z m-26 -127 c-3 -5 -12 -10 -18 -10 -7 0 -6 4 3 10 19 12 23 12 15
0z"/>
<path d="M3236 5667 c3 -10 9 -15 12 -12 3 3 0 11 -7 18 -10 9 -11 8 -5 -6z"/>
<path d="M4380 5575 c0 -2 7 -8 15 -15 12 -10 15 -10 15 2 0 8 -7 15 -15 15
-8 0 -15 -1 -15 -2z"/>
<path d="M2140 5319 c0 -4 6 -9 13 -12 8 -3 14 0 14 7 0 7 -6 13 -14 13 -7 0
-13 -4 -13 -8z"/>
<path d="M2184 5318 c3 -10 0 -18 -7 -19 -43 -4 -54 -3 -69 4 -10 4 -18 4 -18
-1 0 -5 -17 -9 -37 -9 -78 0 -94 -3 -87 -15 4 -7 -2 -4 -14 6 -22 19 -22 19
-22 0 0 -20 -9 -22 -117 -27 -12 -1 -19 -5 -17 -9 3 -5 10 -5 16 -2 7 4 8 2 4
-5 -4 -6 -12 -9 -17 -6 -5 4 -9 2 -9 -3 0 -4 -15 -7 -34 -6 -29 3 -35 -1 -39
-19 l-4 -22 -2 22 c-1 16 -6 20 -21 16 -11 -3 -17 -9 -14 -14 3 -5 10 -6 16
-3 7 4 8 2 4 -4 -4 -7 -16 -12 -27 -12 -24 0 -25 -15 0 -32 20 -14 21 -17 21
-48 0 -11 7 -20 15 -20 11 0 15 -11 15 -40 0 -22 5 -40 11 -40 5 0 7 4 4 10
-4 6 1 7 11 3 11 -4 13 -8 6 -11 -7 -2 -9 -9 -5 -15 4 -6 7 -54 8 -107 0 -52
4 -101 8 -107 5 -8 3 -13 -3 -13 -7 0 -10 -6 -7 -12 2 -7 0 -21 -5 -30 -6 -12
-5 -18 2 -18 7 0 7 -7 -1 -22 -7 -13 -11 -25 -10 -26 2 -2 -1 -7 -5 -10 -4 -4
-4 -1 0 6 4 6 2 12 -3 12 -9 0 -17 -64 -12 -93 1 -5 -2 -6 -6 -4 -5 2 -17 -5
-28 -16 -11 -11 -14 -16 -6 -12 9 5 12 4 7 -3 -4 -7 -14 -12 -22 -12 -9 0 -14
-11 -14 -35 0 -19 -4 -35 -10 -35 -5 0 -6 8 -3 17 6 15 5 16 -9 3 -9 -8 -14
-18 -11 -22 2 -5 -1 -8 -7 -8 -6 0 -9 -4 -6 -9 3 -5 -3 -11 -14 -14 -11 -3
-19 -11 -18 -18 2 -8 -10 -15 -32 -19 -33 -5 -34 -6 -15 -18 15 -10 15 -12 3
-8 -10 3 -20 1 -23 -5 -4 -5 -11 -7 -16 -3 -6 3 -13 -3 -16 -15 -3 -12 -9 -21
-14 -21 -5 0 -6 8 -2 18 5 16 5 16 -8 0 -9 -10 -33 -18 -63 -21 -30 -2 -53
-10 -61 -20 -9 -12 -14 -14 -23 -5 -8 8 -12 8 -12 2 0 -6 -15 -10 -32 -10 -31
1 -33 -1 -33 -34 0 -20 -5 -35 -12 -35 -6 0 -15 -3 -19 -7 -4 -5 -2 -8 6 -8 9
0 10 -4 2 -13 -7 -8 -7 -18 -2 -27 6 -9 5 -17 -3 -22 -8 -5 -7 -8 5 -8 9 0 20
-4 23 -10 3 -6 -1 -7 -10 -4 -11 5 -14 2 -8 -12 4 -12 3 -15 -6 -9 -11 6 -11
3 0 -16 12 -23 12 -23 19 -4 6 17 13 -53 12 -127 -1 -10 4 -21 10 -24 7 -5 9
-1 5 9 -4 10 -2 17 4 17 7 0 9 -11 7 -25 -3 -14 -1 -25 4 -25 5 0 8 -8 6 -17
-2 -12 3 -18 14 -17 10 1 17 -1 16 -5 -4 -36 4 -71 17 -71 14 0 20 -17 16 -47
-1 -7 7 -13 19 -13 15 0 20 -6 20 -29 0 -18 6 -31 16 -35 14 -5 15 -4 4 9 -8
9 -8 15 -2 15 6 0 13 -9 17 -20 4 -13 14 -19 30 -18 18 2 22 6 15 18 -6 12 -5
17 5 17 8 0 12 -5 9 -11 -3 -6 1 -3 9 6 8 10 18 14 23 10 4 -4 2 1 -5 11 -12
15 -12 17 3 11 9 -3 16 -1 16 6 0 6 6 8 13 4 9 -6 9 -4 0 7 -14 14 -17 30 -5
28 21 -4 32 2 26 14 -6 10 -4 10 7 0 16 -16 29 -17 29 -2 0 5 -6 7 -12 3 -9
-5 -8 -2 1 9 7 10 20 16 29 15 8 -2 17 3 20 11 3 9 0 11 -8 6 -9 -5 -11 -4 -6
3 4 7 16 12 27 12 13 0 19 7 19 21 0 14 5 19 14 16 8 -3 22 1 33 9 17 13 17
14 -2 8 -15 -5 -17 -4 -10 4 6 7 23 13 38 14 16 1 29 10 33 20 3 10 10 16 15
12 6 -3 16 0 24 6 12 10 15 10 15 -1 0 -11 2 -11 9 1 6 8 7 18 5 22 -3 4 11 8
31 8 27 0 36 4 32 13 -3 8 0 14 6 15 16 2 81 11 87 12 3 0 -3 7 -12 14 -15 11
-12 13 30 15 65 3 71 3 70 10 -3 28 4 42 18 37 8 -3 12 -2 9 4 -3 6 -2 10 4
10 5 0 8 12 6 26 -2 21 1 25 16 21 10 -3 18 -2 17 2 0 3 0 22 1 41 1 26 4 31
11 20 8 -12 10 -12 16 3 3 9 7 28 8 42 0 14 7 27 14 30 7 3 10 0 7 -5 -3 -6
-1 -10 4 -10 6 0 11 11 11 25 0 23 10 30 34 26 5 -1 3 5 -4 14 -11 14 -11 18
-1 25 8 4 10 13 7 19 -4 6 -1 11 8 11 20 0 29 17 28 54 0 16 2 25 6 19 5 -7
13 -9 21 -4 10 6 10 10 1 16 -8 5 -6 11 7 21 13 10 14 13 4 14 -16 0 -5 15 11
15 6 0 13 8 15 18 1 9 5 25 7 35 2 9 10 16 19 14 11 -2 15 5 13 23 -2 18 1 24
12 23 8 -2 17 3 19 10 3 8 -1 10 -12 6 -11 -5 -9 2 8 20 13 14 30 26 36 26 7
0 9 5 6 10 -4 6 -1 18 7 27 9 12 9 15 1 9 -9 -5 -11 -2 -7 8 3 9 12 16 20 16
13 0 17 11 17 52 0 9 2 17 6 16 23 -2 41 4 36 12 -3 6 -3 15 1 22 5 8 9 6 14
-7 5 -13 19 -19 51 -22 36 -2 77 -7 109 -12 3 -1 -2 -6 -10 -11 -15 -9 -3 -11
88 -13 12 -1 22 -5 22 -10 0 -5 7 -4 15 3 11 10 17 9 29 -3 8 -8 12 -17 9 -21
-6 -6 37 -10 65 -7 6 1 12 -3 12 -9 0 -6 -4 -9 -9 -5 -5 3 -12 2 -15 -3 -3 -5
0 -9 7 -10 7 -1 23 -4 37 -6 14 -2 31 -5 38 -5 6 -1 12 -8 12 -16 0 -10 11
-15 35 -15 24 0 35 -5 35 -15 0 -8 8 -15 18 -16 38 -2 62 -6 69 -12 3 -4 -3
-7 -15 -7 -11 0 -23 -3 -25 -7 -4 -7 13 -8 80 -4 7 1 12 7 10 14 -1 7 12 13
36 15 32 3 37 7 37 28 0 18 4 23 13 18 7 -5 6 -1 -2 10 -13 16 -13 17 1 14 9
-1 16 2 15 7 -1 6 -6 9 -12 7 -5 -1 -3 3 5 10 19 15 15 48 -6 48 -8 0 -14 5
-14 11 0 6 10 8 23 5 l22 -6 -22 11 c-13 7 -23 18 -23 24 0 7 -9 15 -20 18
-13 3 -18 10 -14 21 4 12 0 16 -15 16 -14 0 -21 6 -21 20 0 11 -3 19 -7 19
-22 -4 -32 3 -27 16 4 10 0 15 -15 15 -12 0 -21 6 -21 15 0 14 -12 19 -32 16
-5 0 -8 8 -8 19 0 11 -5 20 -11 20 -5 0 -8 -4 -4 -9 3 -5 0 -13 -6 -17 -7 -4
-9 -3 -5 4 3 6 2 13 -4 17 -6 4 -7 12 -3 18 4 8 1 7 -9 -1 -11 -9 -18 -10 -23
-2 -3 5 -1 10 4 10 6 0 11 3 11 8 0 4 -14 8 -32 9 -17 0 -37 8 -43 17 -7 9
-20 16 -29 16 -9 0 -16 7 -16 15 0 8 -7 15 -15 15 -7 0 -19 8 -25 18 -10 15
-11 15 -6 0 3 -12 1 -15 -10 -11 -7 3 -14 11 -14 19 0 9 -12 14 -36 14 -19 0
-33 4 -29 9 11 18 -13 21 -31 4 -16 -16 -16 -16 -10 4 5 17 3 21 -11 19 -10
-2 -24 4 -31 13 -8 9 -11 10 -7 4 4 -9 -2 -12 -19 -11 -15 1 -26 6 -26 11 0 5
8 6 18 2 12 -4 14 -3 7 4 -6 6 -32 11 -59 12 -38 2 -47 5 -43 18 3 13 -5 16
-47 15 -28 0 -61 3 -73 7 -13 5 -23 5 -23 1 0 -4 -9 -8 -20 -8 -11 0 -19 5
-17 11 2 5 9 10 15 10 5 0 13 2 15 5 3 3 -17 5 -44 6 -27 0 -49 -3 -49 -6 0
-4 14 -6 30 -5 25 2 28 0 19 -11 -7 -9 -16 -11 -23 -5 -6 4 -23 7 -38 4 -14
-2 -29 1 -32 6 -3 5 3 7 14 4 11 -3 20 -1 20 4 0 12 -126 11 -137 -1 -5 -5 -3
-6 5 -2 6 4 12 2 12 -3 0 -17 -18 -13 -30 7 -11 16 -11 16 -6 0z m66 -8 c0 -5
-5 -10 -11 -10 -5 0 -7 5 -4 10 3 6 8 10 11 10 2 0 4 -4 4 -10z m40 -11 c0 -6
-4 -7 -10 -4 -5 3 -10 11 -10 16 0 6 5 7 10 4 6 -3 10 -11 10 -16z m1011 -522
c-10 -9 -11 -8 -5 6 3 10 9 15 12 12 3 -3 0 -11 -7 -18z m-110 -130 c-10 -9
-11 -8 -5 6 3 10 9 15 12 12 3 -3 0 -11 -7 -18z m-924 -232 c0 -8 -4 -12 -9
-9 -5 3 -6 10 -3 15 9 13 12 11 12 -6z m-42 -75 c3 -5 1 -10 -4 -10 -6 0 -11
5 -11 10 0 6 2 10 4 10 3 0 8 -4 11 -10z m-835 -40 c0 -5 -11 -7 -25 -5 -14 1
-25 -2 -25 -8 0 -6 -3 -8 -6 -4 -11 11 4 22 30 23 14 1 26 -2 26 -6z"/>
<path d="M1061 5282 c-15 -12 -15 -13 0 -9 9 3 22 1 30 -3 10 -7 9 -9 -6 -9
-11 0 -39 0 -63 -2 -35 -1 -40 -3 -27 -13 14 -10 12 -12 -12 -14 -15 -1 -30
-7 -31 -13 -3 -6 -8 -6 -17 1 -10 8 -15 8 -21 -1 -4 -7 -3 -9 3 -6 6 4 13 0
17 -8 3 -8 2 -14 -2 -14 -32 5 -53 -3 -50 -18 2 -12 -3 -18 -14 -17 -11 1 -18
-5 -18 -17 0 -17 -11 -24 -33 -20 -5 1 -6 -3 -2 -9 3 -6 11 -8 16 -5 5 3 6 -1
3 -9 -3 -9 -10 -13 -15 -10 -5 3 -9 -4 -9 -15 0 -12 -7 -21 -15 -21 -8 0 -15
-5 -15 -11 0 -6 7 -8 16 -5 8 3 12 2 9 -4 -3 -6 -12 -10 -20 -10 -10 0 -13
-12 -12 -44 2 -38 0 -43 -15 -35 -15 8 -16 0 -15 -81 1 -64 5 -89 14 -86 6 3
14 -2 17 -11 4 -11 2 -14 -9 -9 -8 3 -15 1 -15 -4 0 -6 5 -10 10 -10 6 0 10
-11 10 -25 0 -14 5 -25 11 -25 5 0 7 -4 4 -10 -3 -5 1 -10 9 -10 12 0 16 -10
16 -34 0 -19 5 -38 12 -42 7 -5 8 -3 3 6 -6 9 -4 11 4 6 7 -5 10 -14 7 -22 -3
-8 1 -14 8 -14 19 0 36 -23 38 -53 1 -14 6 -23 10 -21 4 3 5 12 2 22 -2 9 1 7
7 -5 7 -13 21 -23 31 -23 11 0 16 -5 13 -10 -6 -10 34 -31 47 -24 4 3 12 -5
18 -16 7 -12 18 -19 25 -16 8 3 17 1 20 -4 3 -5 12 -7 19 -4 8 3 17 0 22 -7 4
-7 3 -10 -4 -5 -6 3 -13 2 -16 -2 -3 -5 31 -10 76 -11 77 -2 81 -1 67 16 -13
17 -13 17 7 1 21 -19 100 -23 110 -6 3 5 -6 7 -20 4 -16 -3 -24 -1 -20 5 3 6
8 8 11 5 3 -3 14 -1 24 5 14 7 19 6 19 -3 0 -10 3 -10 9 1 5 8 16 11 25 8 9
-4 16 -2 16 4 0 6 5 7 10 4 6 -3 10 -4 10 0 0 3 -10 10 -22 15 -20 8 -18 9 17
11 22 1 43 1 48 0 4 0 7 6 7 14 0 14 12 19 33 16 4 0 7 8 7 19 0 14 7 20 21
20 11 0 18 4 15 9 -3 5 2 15 11 22 14 12 16 12 8 -1 -6 -11 -5 -12 3 -5 6 6
12 25 14 42 1 17 5 31 8 31 23 -2 29 5 26 36 -1 19 0 33 4 31 3 -2 12 0 19 4
9 6 12 43 11 142 -1 74 -2 143 -2 154 1 18 0 19 -9 3 -6 -10 -15 -18 -21 -18
-7 0 -6 5 2 15 8 9 9 15 2 15 -6 0 -9 9 -7 20 2 11 -1 20 -6 20 -6 0 -8 4 -5
8 2 4 0 14 -6 22 -8 12 -9 12 -4 -2 3 -10 2 -19 -2 -22 -4 -3 -9 9 -10 26 -3
37 -10 50 -23 43 -8 -6 -13 8 -10 28 0 4 -8 7 -19 7 -11 0 -20 4 -20 10 0 5 7
7 15 4 8 -4 15 -1 15 5 0 6 -3 10 -7 10 -27 -4 -63 3 -58 11 11 18 -6 32 -23
18 -12 -10 -14 -10 -8 0 4 6 3 12 -3 12 -6 0 -8 6 -5 13 4 12 -16 17 -83 20
-7 0 -15 8 -18 17 -4 13 -24 16 -131 15 -91 0 -132 -4 -143 -13z m-296 -362
c3 -5 1 -10 -4 -10 -6 0 -11 5 -11 10 0 6 2 10 4 10 3 0 8 -4 11 -10z m2 -49
c0 -11 -5 -18 -9 -15 -4 3 -5 11 -1 19 7 21 12 19 10 -4z m6 -44 c3 -8 -1 -14
-8 -14 -7 0 -11 6 -8 14 3 7 6 13 8 13 2 0 5 -6 8 -13z m510 -412 c-3 -9 -8
-14 -10 -11 -3 3 -2 9 2 15 9 16 15 13 8 -4z m-158 -5 c3 -5 1 -10 -4 -10 -6
0 -11 5 -11 10 0 6 2 10 4 10 3 0 8 -4 11 -10z"/>
<path d="M5770 5293 c0 -4 -16 -8 -36 -7 -27 2 -34 -1 -30 -12 4 -11 -4 -14
-34 -14 -26 0 -43 -6 -50 -17 -11 -17 -11 -17 -6 0 3 11 0 17 -9 17 -8 0 -12
-6 -9 -14 4 -10 -2 -16 -18 -18 -17 -2 -22 -8 -20 -23 l4 -20 -16 20 c-14 18
-15 18 -16 3 0 -11 -8 -18 -20 -18 -11 0 -19 -3 -19 -7 4 -24 -3 -35 -17 -29
-12 5 -15 2 -10 -9 4 -10 -3 -19 -19 -27 -17 -8 -23 -18 -22 -37 1 -16 -3 -25
-11 -23 -14 2 -19 -9 -25 -53 -3 -16 -10 -29 -16 -27 -13 2 -13 2 -15 -68 -1
-30 -5 -61 -9 -67 -5 -8 -4 -13 3 -13 8 0 8 -6 0 -20 -6 -11 -7 -20 -3 -20 4
0 7 -17 7 -37 -1 -21 3 -44 8 -50 7 -9 7 -13 -1 -13 -6 0 -11 -5 -11 -11 0 -5
5 -7 10 -4 6 3 10 -2 11 -12 1 -13 3 -11 9 7 7 20 8 16 9 -22 1 -40 4 -48 20
-48 14 0 18 -6 15 -25 -2 -21 1 -25 16 -20 13 4 17 1 16 -12 0 -11 5 -17 13
-15 12 3 12 0 1 -12 -15 -19 0 -22 19 -3 10 10 11 9 6 -5 -4 -11 -2 -18 5 -18
6 0 8 -5 5 -10 -8 -13 12 -20 58 -23 19 -1 35 -4 35 -7 -2 -24 6 -29 37 -26
27 2 32 0 24 -11 -6 -7 -16 -10 -22 -6 -5 3 -7 2 -4 -4 4 -5 39 -11 78 -12 40
-1 75 -2 78 -3 3 0 41 0 84 1 61 1 77 4 77 16 0 8 10 16 23 17 12 1 29 2 37 3
23 1 41 15 35 26 -4 5 4 9 15 9 14 0 24 8 27 21 3 11 11 18 19 15 8 -3 14 4
16 17 2 14 9 21 19 19 12 -2 16 4 13 23 -2 23 0 24 13 13 15 -12 15 -10 3 12
-12 22 -11 23 1 13 12 -10 15 -8 17 10 5 50 10 62 23 62 9 0 14 11 13 33 0 23
4 32 16 32 13 0 16 16 17 100 1 55 -3 103 -8 106 -5 3 -6 10 -3 16 4 7 2 8 -4
4 -12 -7 -13 -5 -16 37 -1 13 -7 21 -16 19 -11 -3 -11 0 0 13 7 8 10 18 6 22
-3 3 -6 1 -6 -5 0 -7 -4 -12 -10 -12 -6 0 -9 3 -9 8 4 23 -2 52 -10 48 -5 -3
-15 2 -22 11 -12 14 -12 16 1 8 12 -7 13 -6 2 6 -7 8 -18 14 -25 14 -7 0 -12
5 -12 12 0 7 -6 18 -14 25 -12 11 -13 11 -6 -1 6 -10 4 -12 -4 -7 -7 5 -10 14
-7 22 4 10 -2 14 -19 14 -14 0 -25 7 -27 16 -2 11 -16 18 -38 21 -19 2 -39 8
-45 14 -7 7 -4 8 9 3 13 -5 17 -4 12 4 -4 7 -23 12 -43 12 -26 0 -34 4 -30 14
4 9 0 13 -11 11 -9 -1 -22 1 -28 6 -7 5 -11 3 -11 -5 0 -9 8 -13 20 -10 11 2
17 0 13 -3 -15 -15 -62 -10 -80 9 -19 21 -35 17 -20 -5 5 -7 1 -4 -8 6 -10 11
-18 15 -18 10z m476 -381 c2 -11 0 -23 -4 -26 -5 -3 -8 5 -7 17 1 12 -3 26 -9
30 -7 6 -6 7 3 5 8 -2 16 -14 17 -26z m0 -107 c-1 -64 -9 -84 -19 -45 -3 11
-2 18 3 15 4 -2 6 18 5 45 -1 28 1 50 4 50 4 0 7 -29 7 -65z m-716 -325 c0 -5
-5 -10 -11 -10 -5 0 -7 5 -4 10 3 6 8 10 11 10 2 0 4 -4 4 -10z m504 -41 c-3
-5 -10 -7 -15 -3 -5 3 -7 10 -3 15 3 5 10 7 15 3 5 -3 7 -10 3 -15z"/>
<path d="M5830 5286 c0 -9 5 -16 10 -16 6 0 10 4 10 9 0 6 -4 13 -10 16 -5 3
-10 -1 -10 -9z"/>
<path d="M1340 5286 c0 -2 7 -6 15 -10 8 -3 15 -1 15 4 0 6 -7 10 -15 10 -8 0
-15 -2 -15 -4z"/>
<path d="M5670 5280 c0 -5 5 -10 10 -10 6 0 10 5 10 10 0 6 -4 10 -10 10 -5 0
-10 -4 -10 -10z"/>
<path d="M4656 5203 c1 -32 3 -59 4 -60 2 -2 3 -7 4 -12 3 -21 12 -18 12 4 0
13 -4 21 -10 18 -5 -3 -6 -1 -2 6 15 23 23 0 25 -71 1 -40 6 -74 12 -76 5 -2
9 -8 9 -13 0 -6 -4 -8 -8 -5 -4 2 -8 -6 -8 -20 0 -13 4 -24 9 -24 5 0 7 7 3
15 -3 8 -2 15 3 15 16 0 20 -13 10 -31 -5 -11 -6 -19 -1 -19 11 0 8 -142 -3
-160 -5 -9 -4 -15 4 -18 9 -3 9 -7 0 -18 -6 -8 -16 -11 -22 -7 -6 3 -7 1 -3
-5 4 -6 12 -9 19 -6 8 3 12 -6 12 -25 0 -16 -3 -27 -7 -24 -5 2 -8 0 -8 -6 0
-5 5 -13 10 -16 7 -4 8 -11 1 -18 -5 -7 -9 -15 -8 -19 1 -3 -1 -10 -5 -14 -4
-3 -6 3 -3 15 2 11 0 21 -4 21 -5 0 -8 -42 -9 -92 0 -87 9 -125 28 -113 5 3
11 1 15 -5 3 -5 0 -10 -7 -10 -7 0 -2 -9 11 -19 14 -11 24 -28 24 -45 0 -14 4
-29 10 -33 6 -3 7 -1 3 5 -4 7 -2 10 7 6 8 -3 13 -16 11 -30 -1 -13 2 -24 7
-24 6 0 7 -5 3 -12 -4 -7 -3 -8 5 -4 6 4 8 12 5 18 -4 7 -2 8 4 4 7 -4 12 -20
12 -37 0 -19 5 -29 15 -29 8 0 17 -14 21 -36 4 -21 11 -33 18 -31 7 3 13 -3
14 -12 4 -33 8 -51 15 -57 4 -4 7 -1 7 6 0 7 3 10 7 6 4 -4 8 -17 8 -29 0 -13
6 -22 15 -22 10 0 16 -12 18 -32 2 -22 9 -33 19 -33 9 0 13 -6 9 -15 -3 -8 -1
-15 5 -15 6 0 9 -7 6 -14 -4 -9 2 -17 14 -21 17 -6 24 -28 20 -62 -1 -7 3 -13
9 -13 6 0 8 5 5 10 -3 6 -1 10 4 10 11 0 14 -9 14 -42 0 -12 7 -18 20 -18 20
0 21 0 1 -15 -14 -11 -15 -14 -2 -9 12 4 17 -1 20 -18 2 -13 9 -22 16 -21 6 2
12 -3 13 -10 1 -6 2 -24 3 -39 2 -15 -1 -25 -6 -22 -4 3 -8 -3 -8 -13 0 -15
-2 -16 -10 -3 -8 13 -10 13 -11 -2 -3 -35 -4 -39 -19 -48 -8 -5 -18 -6 -23 -3
-5 3 -6 -5 -2 -18 7 -23 6 -23 -7 -5 -11 13 -15 15 -16 5 -2 -25 -8 -48 -15
-55 -3 -4 -4 4 -2 17 4 23 4 23 -10 5 -8 -10 -12 -23 -9 -27 3 -5 0 -9 -5 -9
-6 0 -11 5 -11 12 0 6 -3 8 -6 5 -4 -4 -1 -14 6 -22 7 -9 9 -15 4 -14 -22 4
-33 -2 -28 -16 4 -10 0 -15 -15 -15 -14 0 -21 -6 -21 -20 0 -21 -20 -29 -20
-7 0 6 -5 4 -11 -6 -5 -9 -7 -23 -4 -30 4 -6 -1 -3 -9 7 -9 11 -17 17 -17 13
-1 -4 -2 -13 -3 -19 -1 -7 -9 -12 -19 -12 -11 1 -17 -5 -17 -18 0 -14 -5 -18
-15 -15 -8 4 -17 2 -21 -4 -3 -6 -12 -8 -20 -5 -10 4 -14 0 -12 -12 2 -11 -3
-16 -14 -14 -16 3 -23 -8 -19 -30 0 -5 -14 -8 -33 -8 -28 0 -35 -5 -40 -25 -4
-15 -11 -22 -20 -19 -11 4 -14 -10 -14 -72 0 -66 2 -77 19 -81 10 -3 16 -9 13
-14 -3 -5 0 -9 6 -9 6 0 9 -4 6 -8 -3 -5 18 -10 47 -11 28 -1 58 -8 66 -14 12
-9 13 -9 7 1 -5 9 5 12 38 13 63 2 66 3 67 14 1 16 21 23 67 21 37 -1 41 0 26
11 -16 12 -16 13 7 14 13 1 30 1 37 0 6 -1 12 3 12 9 0 5 5 10 11 10 5 0 7 -4
4 -10 -3 -5 0 -7 9 -4 8 3 12 12 9 20 -4 10 3 14 23 14 16 0 36 5 44 11 12 8
9 9 -10 4 -23 -6 -24 -5 -5 7 11 7 22 13 25 13 3 1 16 5 29 9 19 6 21 10 10
18 -11 7 -9 9 6 7 11 -1 29 -1 40 0 15 1 17 3 6 10 -10 6 -4 12 23 21 19 6 39
16 42 22 4 7 2 8 -4 4 -7 -4 -12 -2 -12 3 0 6 10 11 21 11 17 0 20 5 16 21 -5
20 -5 20 13 4 17 -15 18 -15 16 2 -1 13 5 17 19 15 l20 -3 -20 17 c-16 13 -17
15 -3 11 11 -4 21 0 27 11 6 10 11 12 11 5 0 -7 4 -13 9 -13 5 0 8 8 7 18 0
11 6 16 17 16 11 -1 16 4 15 14 -2 9 6 18 20 21 13 3 23 9 23 14 -2 22 0 26
14 21 10 -4 15 0 15 14 0 12 9 23 21 27 17 6 18 9 7 23 -10 12 -10 14 0 8 11
-7 17 5 13 27 -1 5 3 6 9 2 6 -3 8 -11 5 -16 -4 -5 -1 -9 5 -9 7 0 10 6 7 14
-3 8 -3 17 1 21 4 4 7 12 7 18 0 7 7 12 15 12 8 1 14 7 12 14 -1 6 5 22 14 34
12 15 15 17 11 5 -4 -10 -2 -18 3 -18 6 0 10 16 10 35 0 24 5 35 15 35 8 0 16
5 16 10 1 6 3 15 4 20 1 6 3 19 4 31 1 13 6 19 14 16 8 -3 14 3 14 17 5 76 7
90 10 79 3 -7 9 -13 14 -13 6 0 7 5 4 10 -3 6 -2 10 4 10 5 0 9 14 8 32 -1 17
3 33 11 35 8 3 10 -1 5 -14 -3 -10 -2 -15 2 -10 9 8 13 32 14 86 1 26 4 32 17
27 8 -3 13 -2 9 3 -3 5 1 12 7 15 7 3 2 3 -12 0 l-25 -7 25 22 c14 13 18 19
10 15 -12 -7 -13 -5 -3 8 7 8 11 17 8 20 -3 2 -1 19 4 36 7 22 6 32 -1 32 -6
0 -8 3 -5 6 4 4 13 2 20 -4 10 -9 14 -8 14 3 0 8 -4 15 -8 15 -3 0 -9 10 -12
23 -6 21 -6 21 8 3 14 -19 15 -18 15 13 0 19 -4 30 -10 26 -5 -3 -10 -1 -10 5
0 8 -6 8 -20 0 -13 -7 -20 -7 -20 -1 0 6 -10 15 -21 22 -15 8 -19 8 -15 0 4
-6 2 -11 -3 -11 -6 0 -11 3 -11 8 0 4 -30 8 -66 9 -39 1 -74 7 -88 17 -13 8
-36 17 -52 19 -15 2 -30 11 -34 21 -3 10 -9 17 -13 17 -21 -3 -27 0 -27 14 0
10 -7 15 -17 13 -13 -2 -17 3 -15 17 l4 20 -16 -20 c-15 -20 -15 -20 -16 3 0
15 -6 22 -18 22 -10 0 -19 6 -20 13 -2 24 -8 47 -15 53 -3 4 -4 -4 -2 -17 4
-23 4 -23 -10 -5 -8 10 -12 23 -9 27 3 5 0 9 -6 9 -6 0 -8 5 -5 10 3 6 -1 10
-9 10 -11 0 -16 9 -16 28 0 16 -3 22 -8 15 -5 -8 -13 -9 -22 -3 -11 7 -12 10
-2 10 8 0 10 5 5 13 -4 6 -8 22 -9 35 0 12 -5 26 -9 30 -5 4 -5 -1 -2 -10 4
-10 2 -18 -3 -18 -6 0 -11 5 -11 10 -1 6 -3 15 -4 20 -1 6 -3 19 -4 31 -1 13
-5 18 -13 13 -10 -6 -10 -4 0 7 14 16 16 33 2 24 -9 -5 -12 1 -9 21 0 4 -5 11
-13 15 -10 7 -10 9 2 9 13 0 13 1 0 11 -13 9 -13 10 0 6 8 -2 14 -14 14 -25
-1 -12 2 -22 6 -22 4 0 7 13 6 29 0 16 -3 29 -6 29 -18 -1 -23 4 -11 11 8 5
16 17 17 25 1 9 -2 14 -7 10 -5 -3 -7 -10 -4 -15 4 -5 0 -9 -8 -9 -10 0 -13 8
-10 28 2 15 5 41 5 57 0 23 1 25 5 8 2 -13 8 -23 12 -23 8 0 9 2 12 72 1 32 5
45 14 42 16 -6 21 10 21 58 -1 33 2 37 19 32 16 -4 17 -3 5 5 -8 6 -23 11 -33
11 -11 0 -21 9 -24 19 -3 13 -12 18 -24 16 -10 -2 -21 1 -24 6 -4 5 -11 6 -17
3 -7 -4 -8 -2 -4 5 4 6 12 9 17 6 5 -4 9 -1 9 4 0 10 -26 14 -82 14 -10 0 -18
4 -18 9 0 6 7 8 15 5 8 -4 17 -2 20 3 4 6 -2 11 -12 11 -10 1 -31 3 -48 4 -16
2 -38 3 -47 4 -10 1 -18 6 -18 12 0 5 5 7 12 3 6 -4 8 -3 4 4 -4 7 -72 11
-194 12 l-188 1 2 -58z m349 37 c3 -5 1 -10 -4 -10 -6 0 -11 5 -11 10 0 6 2
10 4 10 3 0 8 -4 11 -10z m-285 -796 c0 -8 -5 -12 -10 -9 -6 4 -8 11 -5 16 9
14 15 11 15 -7z m-32 -1209 c-3 -3 -9 2 -12 12 -6 14 -5 15 5 6 7 -7 10 -15 7
-18z m-1 -180 c0 -8 -4 -12 -9 -9 -5 3 -6 10 -3 15 9 13 12 11 12 -6z m192 2
c8 -10 7 -14 -2 -14 -8 0 -14 6 -14 14 0 7 1 13 2 13 2 0 8 -6 14 -13z"/>
<path d="M3046 5168 c3 -5 10 -6 15 -3 13 9 11 12 -6 12 -8 0 -12 -4 -9 -9z"/>
<path d="M2990 5110 c0 -5 5 -10 10 -10 6 0 10 5 10 10 0 6 -4 10 -10 10 -5 0
-10 -4 -10 -10z"/>
<path d="M5226 4874 c-5 -14 -4 -15 9 -4 17 14 19 20 6 20 -5 0 -12 -7 -15
-16z"/>
<path d="M2510 4820 c0 -5 5 -10 11 -10 5 0 7 5 4 10 -3 6 -8 10 -11 10 -2 0
-4 -4 -4 -10z"/>
<path d="M2830 4791 c0 -5 5 -13 10 -16 6 -3 10 -2 10 4 0 5 -4 13 -10 16 -5
3 -10 2 -10 -4z"/>
<path d="M4630 4790 c0 -5 5 -10 11 -10 5 0 7 5 4 10 -3 6 -8 10 -11 10 -2 0
-4 -4 -4 -10z"/>
<path d="M4635 4760 c-3 -5 -1 -10 4 -10 6 0 11 5 11 10 0 6 -2 10 -4 10 -3 0
-8 -4 -11 -10z"/>
<path d="M4637 4695 c-4 -8 -3 -16 1 -19 4 -3 9 4 9 15 2 23 -3 25 -10 4z"/>
<path d="M1630 4680 c0 -5 5 -10 10 -10 6 0 10 5 10 10 0 6 -4 10 -10 10 -5 0
-10 -4 -10 -10z"/>
<path d="M3055 4680 c3 -5 8 -10 11 -10 2 0 4 5 4 10 0 6 -5 10 -11 10 -5 0
-7 -4 -4 -10z"/>
<path d="M4270 4680 c0 -5 5 -10 10 -10 6 0 10 5 10 10 0 6 -4 10 -10 10 -5 0
-10 -4 -10 -10z"/>
<path d="M6203 4645 c0 -8 4 -12 9 -9 5 3 6 10 3 15 -9 13 -12 11 -12 -6z"/>
<path d="M1595 4610 c-3 -5 -1 -10 4 -10 6 0 11 5 11 10 0 6 -2 10 -4 10 -3 0
-8 -4 -11 -10z"/>
<path d="M1686 4584 c-5 -14 -4 -15 9 -4 17 14 19 20 6 20 -5 0 -12 -7 -15
-16z"/>
<path d="M846 4552 c-3 -6 -1 -14 5 -17 15 -10 25 3 12 16 -7 7 -13 7 -17 1z"/>
<path d="M5570 4441 c0 -5 5 -13 10 -16 6 -3 10 -2 10 4 0 5 -4 13 -10 16 -5
3 -10 2 -10 -4z"/>
<path d="M5546 4342 c-3 -5 1 -9 9 -9 8 0 15 4 15 9 0 4 -4 8 -9 8 -6 0 -12
-4 -15 -8z"/>
<path d="M5620 4310 c8 -5 22 -9 30 -9 10 0 8 3 -5 9 -27 12 -43 12 -25 0z"/>
<path d="M5820 4278 c0 -4 7 -8 15 -8 8 0 15 4 15 8 0 5 -7 9 -15 9 -8 0 -15
-4 -15 -9z"/>
<path d="M5865 4280 c-3 -5 -1 -10 4 -10 6 0 11 5 11 10 0 6 -2 10 -4 10 -3 0
-8 -4 -11 -10z"/>
<path d="M1196 4241 c-3 -5 0 -11 7 -14 8 -3 14 1 14 9 0 16 -13 19 -21 5z"/>
<path d="M2202 3995 c-17 -9 -20 -14 -10 -18 12 -5 -79 -11 -112 -8 -13 2 -13
1 0 -8 8 -5 18 -7 22 -5 4 3 5 -3 1 -12 -4 -11 -8 -13 -11 -6 -3 9 -9 9 -24 1
-16 -8 -19 -8 -13 1 6 9 3 9 -11 2 -20 -10 -25 -12 -46 -12 -9 0 -8 -4 2 -10
8 -5 13 -10 10 -11 -3 0 -14 -2 -25 -5 -11 -2 -37 -5 -58 -6 -35 -2 -36 -3
-15 -15 l23 -12 -25 -2 c-14 -1 -29 -1 -33 0 -5 1 -11 -8 -14 -19 -4 -14 -14
-20 -34 -20 -18 0 -32 -7 -39 -20 -7 -12 -16 -17 -27 -13 -12 5 -15 2 -10 -10
3 -9 2 -18 -3 -18 -6 -1 -14 -3 -20 -4 -5 -1 -17 -3 -25 -4 -8 0 -15 -7 -15
-15 0 -8 -9 -18 -20 -21 -11 -3 -20 -13 -20 -21 0 -8 -9 -14 -21 -14 -15 0
-19 -5 -15 -15 5 -13 -5 -20 -26 -16 -5 0 -8 -9 -8 -21 -1 -23 -1 -23 -17 -3
-13 16 -15 17 -10 3 4 -12 1 -18 -8 -18 -8 0 -15 -5 -15 -11 0 -5 6 -7 13 -3
9 5 9 3 -1 -7 -11 -12 -14 -12 -22 1 -7 11 -10 6 -10 -19 0 -33 -1 -34 -15
-15 -13 16 -14 16 -9 2 3 -10 1 -18 -5 -18 -6 0 -11 -9 -11 -20 0 -13 -5 -17
-14 -14 -10 4 -16 -2 -18 -18 -2 -13 -10 -23 -18 -23 -8 0 -16 -6 -16 -12 -1
-7 -2 -17 -3 -23 0 -5 -8 -7 -16 -4 -11 5 -15 -1 -15 -25 0 -28 -12 -41 -23
-23 -2 4 -3 2 -1 -4 3 -15 -23 -60 -33 -56 -4 1 -10 -12 -13 -30 -3 -18 -10
-32 -16 -31 -6 1 -11 -4 -11 -12 0 -7 7 -11 15 -7 10 3 13 1 8 -6 -4 -7 -14
-12 -22 -12 -8 0 -14 -6 -13 -12 4 -32 -2 -59 -11 -53 -6 4 -7 12 -4 18 4 7 3
8 -2 4 -10 -10 -11 -14 -13 -63 0 -19 -5 -33 -10 -30 -12 8 -28 -34 -27 -72 1
-17 -3 -32 -8 -32 -5 0 -2 -8 5 -17 13 -16 12 -17 -3 -4 -10 7 -16 17 -13 21
3 5 2 11 -3 14 -4 2 -9 -21 -10 -53 -3 -75 -9 -104 -24 -116 -7 -5 -12 -21
-12 -35 4 -71 4 -75 12 -62 10 14 90 14 99 -1 4 -6 1 -7 -7 -2 -8 5 -11 4 -6
-3 4 -6 13 -9 21 -5 9 3 15 -1 15 -8 0 -11 3 -11 10 1 6 9 13 11 18 5 7 -10
17 -11 90 -14 18 0 31 -5 27 -10 -8 -14 13 -24 46 -23 16 0 31 -3 34 -9 3 -5
0 -6 -8 -3 -8 3 -18 0 -23 -7 -4 -7 -3 -10 4 -5 6 3 13 2 17 -3 3 -6 11 -8 18
-5 7 2 21 -2 32 -11 16 -12 17 -14 3 -9 -10 3 -18 1 -18 -5 0 -6 3 -10 8 -10
4 1 19 1 34 0 21 -1 26 -5 23 -21 -3 -16 2 -20 21 -20 25 0 33 -15 12 -23 -8
-3 -6 -6 4 -6 10 -1 16 -7 14 -13 -1 -7 -1 -10 1 -5 9 15 23 6 23 -14 0 -13 4
-18 13 -13 7 5 6 1 -2 -10 -13 -16 -13 -17 5 -14 14 2 19 -3 18 -20 0 -15 4
-21 12 -18 8 3 16 0 20 -6 4 -6 3 -8 -3 -5 -6 4 -13 0 -16 -8 -4 -9 -1 -12 9
-8 10 4 14 -3 15 -21 2 -38 3 -44 11 -52 4 -3 6 3 3 14 -2 12 0 24 4 26 9 6 9
4 14 -86 2 -37 6 -71 10 -74 12 -12 8 -26 -5 -18 -10 6 -10 5 -1 -7 9 -11 9
-19 2 -26 -8 -8 -5 -16 10 -30 15 -14 17 -22 10 -33 -9 -12 -10 -12 -5 3 3 10
0 17 -7 17 -8 0 -12 -18 -13 -50 -1 -28 -7 -56 -14 -63 -10 -10 -12 -8 -7 6 4
10 3 16 -1 13 -5 -3 -10 -22 -11 -43 -6 -107 -5 -117 14 -109 10 4 15 -1 15
-15 0 -14 5 -19 14 -16 8 3 17 3 21 -1 4 -4 11 -8 16 -8 5 -1 13 -2 19 -3 5 0
7 -8 4 -16 -4 -10 0 -13 14 -10 13 2 22 -3 25 -14 3 -13 17 -17 62 -19 32 -1
64 -7 71 -13 8 -6 14 -7 14 -2 0 5 13 9 29 8 16 0 27 -4 24 -8 -3 -5 -11 -6
-18 -3 -8 3 -18 -1 -24 -8 -9 -10 -6 -13 11 -11 13 2 31 6 41 10 10 4 17 3 17
-4 0 -6 5 -11 11 -11 5 0 7 5 3 12 -4 7 -3 8 4 4 21 -13 54 -15 73 -6 10 6 20
6 23 1 8 -13 67 -6 76 9 10 16 47 23 54 11 3 -4 -6 -7 -19 -5 -14 1 -25 -2
-25 -6 0 -14 18 -21 25 -11 3 6 12 8 19 5 10 -4 14 8 14 51 0 43 -3 53 -13 45
-9 -8 -14 -6 -19 5 -4 11 -2 14 6 9 8 -5 9 -1 4 12 -4 10 -10 46 -13 79 -3 33
-9 67 -14 75 -6 10 -7 6 -3 -12 3 -16 2 -28 -3 -28 -10 0 -13 56 -12 250 1 74
1 143 1 153 -1 10 4 15 10 11 7 -5 8 -2 2 7 -4 8 -9 27 -10 44 -2 19 0 25 6
15 4 -7 7 -22 5 -32 -2 -10 0 -16 4 -14 4 3 7 18 7 33 -1 15 2 36 6 45 5 10 3
20 -3 24 -8 4 -7 9 2 15 10 6 10 9 2 9 -7 0 -10 7 -6 18 5 14 3 13 -11 -3 -12
-14 -16 -16 -15 -5 4 38 -2 60 -16 60 -8 0 -15 9 -15 20 0 11 -6 20 -12 20 -9
0 -8 4 2 10 14 9 13 11 -9 14 -16 2 -20 11 -23 43 -1 18 -5 31 -8 31 -24 -2
-32 4 -27 23 4 14 2 19 -8 15 -15 -5 -25 14 -25 50 0 17 -4 22 -15 18 -14 -6
-19 9 -18 53 0 6 -5 14 -13 17 -8 3 -11 -2 -9 -16 3 -11 1 -17 -3 -14 -7 8 -9
13 -11 44 0 11 -11 24 -23 31 l-23 11 23 -6 c13 -3 22 -1 22 6 0 6 -4 9 -9 6
-12 -8 -34 21 -26 34 3 5 1 10 -5 10 -6 0 -8 5 -4 13 5 7 0 6 -11 -3 -17 -13
-18 -13 -13 0 7 20 -9 63 -22 55 -10 -6 -14 7 -11 33 1 8 -6 12 -16 10 -17 -3
-19 1 -22 41 0 11 -10 22 -20 26 -15 4 -19 13 -16 35 3 24 0 30 -15 30 -15 0
-20 7 -20 26 0 17 -4 23 -12 18 -10 -6 -10 -4 0 7 6 7 12 22 12 32 0 14 5 18
20 14 11 -3 18 -1 15 3 -8 13 6 40 20 40 7 0 15 9 18 21 3 12 10 18 16 15 5
-4 12 3 16 14 3 11 13 20 21 20 8 0 14 9 14 20 0 11 3 19 8 19 20 -3 32 2 27
12 -4 6 2 13 14 16 12 3 21 13 21 24 0 13 7 19 21 19 15 0 19 5 15 15 -4 12 3
15 29 15 18 0 37 5 41 12 4 7 3 8 -4 4 -7 -4 -12 -2 -12 3 0 10 14 15 33 12 5
-1 11 8 14 19 3 11 14 20 25 20 13 0 17 4 12 13 -5 8 -2 8 9 -2 17 -13 18 -13
21 12 0 6 7 13 14 13 6 1 16 2 22 3 5 0 7 8 4 16 -4 10 0 15 14 15 13 0 22 9
27 27 4 19 9 23 14 14 6 -9 11 -10 15 -3 3 6 2 13 -4 17 -6 4 -7 11 -4 17 11
17 13 58 4 58 -5 0 -7 12 -4 28 3 19 2 23 -5 12 -5 -8 -7 -18 -5 -22 3 -4 0
-8 -5 -8 -6 0 -11 17 -12 38 0 20 -3 31 -6 25 -2 -7 -9 -13 -14 -13 -6 0 -7 5
-4 10 3 6 -2 10 -12 10 -11 0 -25 6 -32 13 -8 6 -11 8 -8 2 3 -6 -10 -11 -29
-12 -19 -2 -34 1 -34 6 0 6 9 8 19 6 11 -2 26 4 33 13 11 15 11 15 -3 5 -8 -7
-20 -9 -25 -4 -5 4 -20 2 -32 -4z m-877 -675 c3 -5 1 -10 -4 -10 -6 0 -11 5
-11 10 0 6 2 10 4 10 3 0 8 -4 11 -10z m873 -605 c-3 -3 -9 2 -12 12 -6 14 -5
15 5 6 7 -7 10 -15 7 -18z m-413 -465 c-3 -5 -12 -10 -18 -10 -7 0 -6 4 3 10
19 12 23 12 15 0z m5 -30 c0 -5 -2 -10 -4 -10 -3 0 -8 5 -11 10 -3 6 -1 10 4
10 6 0 11 -4 11 -10z m-4 -54 c0 -14 -6 -22 -13 -19 -9 4 -9 9 0 24 15 24 15
24 13 -5z m119 -378 c5 -4 0 -6 -13 -5 -22 1 -27 8 -15 20 3 4 9 4 12 0 3 -4
10 -11 16 -15z"/>
<path d="M1270 3840 c0 -5 5 -10 10 -10 6 0 10 5 10 10 0 6 -4 10 -10 10 -5 0
-10 -4 -10 -10z"/>
<path d="M1725 3780 c3 -5 8 -10 11 -10 2 0 4 5 4 10 0 6 -5 10 -11 10 -5 0
-7 -4 -4 -10z"/>
<path d="M5080 3610 c0 -5 5 -10 11 -10 5 0 7 5 4 10 -3 6 -8 10 -11 10 -2 0
-4 -4 -4 -10z"/>
<path d="M5560 3364 c0 -7 -6 -17 -13 -21 -8 -4 -19 -17 -25 -28 -11 -19 -11
-19 -12 5 -1 22 -3 21 -13 -10 -11 -33 -23 -42 -54 -43 -7 0 -13 -5 -13 -10 0
-5 8 -6 18 -3 14 5 14 4 -2 -9 -11 -8 -29 -15 -40 -16 -21 0 -21 -1 -1 -9 17
-7 17 -9 3 -9 -10 -1 -18 -5 -18 -10 0 -5 -10 -7 -22 -4 -18 4 -20 3 -8 -6 13
-9 13 -12 1 -23 -12 -11 -12 -10 -6 2 7 12 6 13 -7 3 -8 -7 -18 -10 -21 -6 -4
3 -7 -3 -7 -15 0 -15 -7 -22 -20 -23 -33 -2 -38 -4 -47 -13 -4 -5 -3 -6 4 -2
6 3 15 2 18 -4 4 -6 3 -9 -2 -8 -4 1 -23 -1 -41 -5 -23 -5 -31 -11 -26 -19 5
-8 0 -7 -11 2 -11 9 -16 10 -11 3 7 -13 -4 -17 -31 -14 -7 1 -14 -8 -14 -21
-1 -17 -3 -18 -6 -5 -5 21 -23 23 -23 2 0 -11 -11 -15 -36 -15 -20 0 -33 -4
-29 -9 3 -6 -4 -15 -16 -21 -14 -8 -19 -8 -15 -1 4 6 -8 4 -27 -4 -19 -8 -38
-11 -42 -7 -5 4 -5 1 -1 -6 4 -7 11 -10 16 -7 5 3 11 1 15 -4 3 -6 -5 -8 -20
-5 -21 4 -25 1 -25 -20 0 -18 -4 -24 -15 -20 -14 6 -20 -15 -18 -64 1 -10 -3
-9 -16 2 -16 14 -17 13 -15 -14 2 -24 -2 -30 -17 -30 -11 0 -19 -6 -18 -12 4
-33 -2 -58 -15 -58 -8 0 -17 -7 -20 -16 -4 -10 -2 -13 7 -9 6 4 4 0 -5 -8 -13
-10 -15 -16 -6 -25 9 -9 7 -12 -10 -12 -21 0 -28 -18 -22 -59 1 -11 -2 -10
-15 3 -21 20 -32 21 -15 1 7 -9 8 -15 2 -15 -6 0 -9 -11 -8 -25 2 -14 -4 -30
-13 -37 -14 -12 -14 -11 -2 5 12 15 11 17 -3 17 -12 0 -16 -9 -16 -34 0 -19
-5 -38 -12 -42 -7 -4 -8 -3 -4 4 4 7 3 12 -3 12 -5 0 -12 -18 -16 -40 -7 -42
-20 -52 -28 -22 -4 16 -11 -40 -8 -65 1 -7 -3 -13 -9 -13 -6 0 -9 4 -5 9 3 5
2 12 -3 15 -8 5 -12 -8 -13 -46 0 -10 -5 -20 -10 -23 -5 -4 -6 -11 -3 -17 4
-7 2 -8 -5 -4 -6 4 -9 12 -6 17 4 5 2 9 -4 9 -5 0 -10 -8 -10 -17 -1 -39 -7
-72 -15 -80 -4 -4 -6 -2 -4 6 2 7 -2 15 -8 18 -7 2 -10 -10 -9 -32 1 -30 -1
-36 -16 -32 -20 5 -34 -19 -16 -27 7 -3 1 -3 -12 0 -15 4 -21 2 -17 -4 4 -6
-2 -8 -14 -5 -11 3 -22 9 -25 13 -3 5 3 6 14 3 10 -3 21 -1 24 4 3 4 -19 10
-49 11 -38 2 -61 9 -74 22 -12 12 -26 17 -37 13 -10 -4 -12 -8 -5 -11 17 -5
15 -19 -2 -19 -8 0 -15 3 -14 6 2 20 -5 27 -29 25 -39 -2 -53 5 -47 24 3 9 -2
6 -10 -8 -8 -14 -15 -20 -16 -13 0 6 -9 10 -20 8 -11 -2 -20 1 -20 7 0 5 7 7
16 4 8 -3 12 -2 9 4 -3 6 -19 10 -36 10 -20 0 -29 5 -29 16 0 8 -5 12 -10 9
-6 -4 -7 -11 -4 -17 4 -7 2 -8 -5 -4 -6 4 -9 12 -6 17 6 9 5 10 -33 14 -13 1
-29 8 -35 15 -9 10 -9 11 0 6 6 -3 15 -2 18 4 4 6 3 10 -2 9 -28 -5 -73 2 -68
11 3 6 2 10 -4 10 -5 0 -12 -6 -15 -12 -4 -7 -4 -3 -2 9 4 20 0 22 -32 20 -24
-1 -37 3 -39 13 -4 12 -3 12 5 2 8 -11 10 -11 14 0 4 10 -7 13 -44 15 -40 1
-48 -2 -46 -15 2 -10 -3 -16 -11 -14 -7 1 -19 -3 -27 -9 -11 -9 -14 -8 -14 1
0 8 -3 10 -7 6 -5 -4 1 -14 12 -23 20 -15 20 -15 -2 -8 -18 5 -23 2 -24 -12
-1 -10 -2 -30 -3 -45 0 -14 -4 -30 -8 -34 -4 -3 -6 2 -4 13 5 25 -9 50 -18 34
-4 -6 -2 -11 3 -11 13 0 10 -22 -3 -31 -5 -4 0 -10 11 -13 13 -4 21 -16 22
-31 3 -51 5 -55 20 -53 10 2 15 -4 14 -15 0 -12 4 -17 13 -13 9 4 18 -4 24
-20 6 -14 14 -23 19 -20 5 3 15 -2 22 -11 10 -12 10 -14 2 -9 -7 4 -13 2 -13
-3 0 -6 8 -11 18 -11 9 0 23 -9 30 -20 7 -12 16 -18 21 -16 4 3 17 -2 27 -10
10 -9 13 -12 5 -8 -9 5 -12 3 -7 -4 4 -7 15 -12 25 -12 10 0 21 -8 23 -18 4
-14 14 -18 35 -17 18 1 30 -3 30 -11 0 -7 -6 -10 -14 -7 -7 3 -13 1 -13 -4 0
-5 12 -10 28 -11 53 -5 66 -9 71 -24 3 -8 14 -14 24 -12 11 1 17 -4 17 -17 0
-16 8 -19 43 -20 23 -1 45 -1 49 0 4 0 9 -8 13 -18 4 -12 13 -17 30 -15 14 1
25 -3 25 -9 0 -7 5 -5 10 3 8 12 10 11 10 -7 0 -13 5 -23 11 -23 5 0 8 4 4 9
-3 5 -1 12 5 16 5 3 10 -1 10 -9 0 -12 10 -16 35 -16 31 0 39 -6 37 -30 0 -3
27 -5 61 -5 62 0 92 -9 81 -26 -3 -5 2 -6 10 -3 9 3 16 10 16 15 0 5 5 9 11 9
5 0 7 -4 4 -10 -8 -13 -12 -12 123 -15 66 -1 115 2 119 8 3 6 1 7 -5 3 -7 -4
-12 -2 -12 3 0 6 14 11 31 11 17 0 28 -4 24 -10 -3 -5 -1 -10 4 -10 6 0 11 6
11 13 0 8 24 12 83 13 97 2 126 7 136 22 3 6 28 12 54 13 34 2 46 6 43 16 -3
7 -2 12 2 12 4 -1 9 0 12 1 3 1 28 3 55 4 41 2 49 5 47 19 -2 11 2 15 11 11 9
-3 16 3 20 15 3 12 1 21 -5 21 -5 0 -6 6 -2 13 5 8 2 8 -9 -2 -15 -12 -17 -10
-17 22 0 27 -6 39 -22 48 -15 8 -18 14 -10 17 10 3 10 7 1 18 -6 8 -8 14 -5
14 4 0 1 6 -6 14 -7 8 -15 12 -18 11 -3 -2 -7 5 -7 16 -1 10 2 19 8 19 5 0 8
-5 6 -11 -1 -6 4 -14 11 -16 19 -7 14 14 -7 29 -16 12 -19 28 -20 122 -1 80 2
112 11 118 10 6 10 8 1 8 -7 0 -13 5 -13 11 0 6 7 8 16 5 8 -3 13 -2 9 3 -3 5
1 12 7 15 7 4 4 5 -8 2 -12 -2 -21 2 -21 9 0 7 7 12 16 11 11 -1 16 7 15 22
-1 12 2 22 6 22 5 0 6 10 3 23 -5 22 -5 22 11 2 10 -11 15 -15 12 -9 -3 6 1
23 9 38 8 14 9 24 3 20 -6 -4 -9 -1 -6 7 3 8 12 13 21 11 11 -2 15 3 12 18 -3
15 1 20 16 20 11 0 17 5 14 10 -4 6 -11 7 -17 4 -7 -4 -8 -2 -4 5 4 6 12 9 17
6 5 -4 9 1 9 9 0 8 5 18 12 22 7 4 8 3 4 -4 -4 -8 -2 -10 7 -6 8 3 14 15 13
26 0 12 6 23 14 25 12 4 12 3 2 -5 -11 -7 -11 -10 2 -15 9 -4 15 -3 15 1 -4
22 3 33 16 28 10 -4 15 1 15 14 0 19 22 26 70 21 13 -2 13 -1 0 8 -8 5 -18 7
-22 5 -4 -3 -8 0 -8 6 0 7 6 10 14 7 8 -3 17 -3 20 1 4 3 23 7 44 8 20 1 38 3
40 4 1 1 6 3 11 4 5 0 13 4 17 8 3 4 -4 5 -16 3 -12 -2 -20 -1 -16 2 9 9 29
12 102 14 l62 2 1 118 c1 84 -2 119 -10 119 -6 0 -9 -7 -6 -15 4 -8 3 -16 -1
-19 -4 -3 -8 10 -9 29 0 26 3 32 16 29 10 -3 8 0 -5 8 -13 9 -19 22 -18 40 2
19 -3 27 -17 31 -11 3 -19 9 -18 14 5 28 -3 93 -11 93 -5 0 -7 -7 -4 -15 4 -8
1 -15 -5 -15 -6 0 -10 3 -9 8 6 21 -13 71 -29 75 -13 3 -11 5 7 7 l25 2 -25 7
c-16 5 -24 13 -22 24 2 10 -4 17 -13 17 -8 0 -15 7 -15 15 0 13 -11 19 -31 17
-4 -1 -6 6 -5 16 1 11 -7 17 -21 18 -13 1 -23 -5 -23 -12z m234 -590 c5 -14 4
-15 -9 -4 -17 14 -19 20 -6 20 5 0 12 -7 15 -16z m-169 -34 c-3 -5 -12 -10
-18 -10 -7 0 -6 4 3 10 19 12 23 12 15 0z m-1815 -360 c0 -5 -2 -10 -4 -10 -3
0 -8 5 -11 10 -3 6 -1 10 4 10 6 0 11 -4 11 -10z m520 -181 c0 -14 -17 -10
-23 5 -4 10 -1 13 9 9 7 -3 14 -9 14 -14z m124 -437 c2 -4 -4 -8 -14 -8 -10 0
-16 4 -14 8 3 4 9 8 14 8 5 0 11 -4 14 -8z m116 -32 c0 -5 -2 -10 -4 -10 -3 0
-8 5 -11 10 -3 6 -1 10 4 10 6 0 11 -4 11 -10z m120 -11 c0 -3 -18 -6 -40 -5
-22 0 -40 4 -40 7 0 3 18 6 40 5 22 0 40 -4 40 -7z m84 -1 c-3 -4 -9 -8 -15
-8 -5 0 -9 4 -9 8 0 5 7 9 15 9 8 0 12 -4 9 -9z m36 2 c0 -5 -4 -10 -10 -10
-5 0 -10 5 -10 10 0 6 5 10 10 10 6 0 10 -4 10 -10z"/>
<path d="M1910 3220 c0 -5 5 -10 11 -10 5 0 7 5 4 10 -3 6 -8 10 -11 10 -2 0
-4 -4 -4 -10z"/>
<path d="M1943 3155 c0 -8 4 -12 9 -9 5 3 6 10 3 15 -9 13 -12 11 -12 -6z"/>
<path d="M5753 3115 c0 -8 4 -15 9 -15 4 0 8 7 8 15 0 8 -4 15 -8 15 -5 0 -9
-7 -9 -15z"/>
<path d="M1150 2725 c0 -8 2 -15 4 -15 2 0 6 7 10 15 3 8 1 15 -4 15 -6 0 -10
-7 -10 -15z"/>
<path d="M1190 2731 c0 -5 5 -13 10 -16 6 -3 10 -2 10 4 0 5 -4 13 -10 16 -5
3 -10 2 -10 -4z"/>
<path d="M2530 2709 c0 -4 -10 -5 -22 -3 -13 2 -17 2 -10 -2 6 -3 12 -11 12
-16 0 -6 -3 -8 -7 -5 -3 4 -12 -1 -20 -11 -8 -9 -11 -11 -7 -3 4 9 2 12 -7 9
-8 -3 -13 -15 -11 -26 3 -17 -2 -22 -20 -23 -17 0 -19 -2 -8 -7 17 -8 20 -26
6 -39 -5 -4 -6 -3 -2 4 3 6 2 14 -4 18 -6 4 -10 -8 -11 -29 0 -20 -1 -56 -2
-80 0 -25 -4 -43 -8 -40 -4 2 -6 13 -4 24 2 11 0 20 -5 20 -13 0 -19 -25 -10
-41 6 -8 4 -16 -3 -21 -9 -6 -9 -8 1 -8 8 0 10 -5 5 -12 -4 -7 -8 -29 -8 -48
-1 -19 -4 -41 -8 -48 -5 -6 -3 -12 2 -12 13 0 10 -22 -4 -32 -6 -5 -6 -8 1 -8
9 0 12 -41 4 -75 -1 -5 -1 -12 0 -15 1 -3 3 -39 4 -81 2 -77 10 -104 27 -94 5
4 9 1 9 -5 0 -7 -9 -9 -22 -6 -13 3 -17 3 -10 0 9 -4 10 -10 3 -18 -8 -9 -7
-13 4 -13 8 0 11 5 8 11 -4 6 -2 7 3 3 10 -9 10 -14 13 -90 1 -36 4 -46 14
-41 9 6 9 4 1 -7 -13 -16 -15 -51 -2 -43 5 3 6 9 3 14 -3 5 0 12 6 16 7 4 9 3
5 -4 -3 -6 -1 -14 4 -17 7 -5 5 -12 -7 -22 -10 -8 -13 -12 -7 -9 13 6 29 -58
19 -73 -3 -5 4 -7 15 -4 17 5 20 0 20 -27 0 -19 7 -38 18 -47 9 -7 13 -12 7
-11 -5 2 -11 -2 -12 -7 -1 -6 5 -9 13 -7 8 2 14 -5 14 -16 0 -11 7 -22 15 -26
9 -3 15 -18 15 -36 0 -20 5 -30 15 -30 8 0 15 -6 15 -14 0 -7 9 -16 20 -19 17
-4 26 -29 21 -59 0 -5 8 -8 20 -8 14 0 19 -5 16 -13 -3 -8 -1 -20 4 -28 7 -11
9 -11 9 -1 0 7 5 10 11 7 6 -4 8 -13 5 -21 -5 -13 6 -18 27 -15 13 2 8 -11
-10 -25 -17 -13 -17 -14 0 -8 13 5 20 1 24 -14 3 -12 15 -22 26 -24 14 -2 24
-14 31 -35 6 -23 15 -33 29 -33 13 0 17 -5 14 -15 -4 -8 -2 -17 3 -20 6 -4 10
-1 10 5 0 6 5 8 10 5 6 -3 10 -15 10 -26 0 -14 7 -19 30 -19 31 0 37 -8 20
-28 -6 -6 -8 -10 -4 -8 3 2 18 0 34 -4 21 -6 30 -5 34 6 4 10 2 13 -7 8 -8 -5
-7 -2 2 9 14 18 26 23 16 8 -3 -5 -1 -12 5 -16 8 -5 15 22 11 47 0 4 8 10 19
13 11 4 20 13 20 21 0 8 7 14 17 14 9 0 13 3 10 6 -3 4 -1 16 4 27 9 16 13 17
20 6 6 -10 9 -8 9 9 0 15 6 22 20 22 13 0 20 7 20 19 0 10 7 22 16 25 8 3 12
2 9 -4 -3 -6 -1 -10 4 -10 6 0 11 9 11 21 0 15 5 19 15 15 8 -3 15 -1 15 3 0
5 9 7 20 4 16 -4 19 -2 14 11 -3 9 -1 17 5 17 6 1 20 3 31 4 11 1 25 3 30 4 6
0 10 9 10 19 1 13 4 12 14 -7 8 -14 16 -19 20 -13 3 6 0 12 -6 15 -36 12 15
18 163 17 191 -2 188 -2 187 -9 -2 -25 3 -27 74 -34 13 -1 14 -5 6 -14 -8 -10
-5 -13 12 -13 16 0 20 -4 16 -16 -3 -8 -2 -12 4 -9 6 3 10 1 10 -6 0 -7 3 -10
6 -7 8 9 55 -42 49 -53 -3 -5 1 -6 9 -3 9 3 13 11 9 17 -3 6 -1 7 6 3 6 -4 9
-12 5 -17 -3 -6 2 -17 12 -25 11 -9 13 -13 7 -9 -7 3 -13 2 -13 -3 0 -5 10
-12 22 -15 12 -4 19 -9 16 -13 -4 -3 0 -13 8 -22 9 -9 19 -11 22 -6 4 5 15 10
25 11 53 2 56 3 51 18 -5 12 2 15 32 15 36 0 37 1 18 16 -10 8 -14 13 -8 10
18 -9 65 17 59 33 -4 9 1 12 14 8 15 -3 21 1 23 17 2 11 9 22 16 22 37 4 37 4
23 13 -11 7 -9 10 8 16 12 4 21 15 21 26 0 11 5 17 10 14 6 -3 10 -1 10 5 0 6
4 8 10 5 6 -3 7 1 4 9 -3 9 -1 16 6 16 6 0 9 4 5 9 -3 5 0 13 6 17 7 4 9 3 5
-4 -3 -6 -2 -13 4 -17 6 -4 10 8 10 29 0 28 4 36 19 36 14 0 18 6 16 25 -2 14
1 25 6 25 6 0 7 5 4 10 -4 6 -1 9 6 8 12 -3 18 20 22 75 1 17 2 17 13 2 7 -9
15 -12 18 -7 9 15 -16 30 -59 34 -28 3 -40 9 -39 19 1 12 -11 15 -57 15 -31
-1 -57 1 -57 4 1 20 -7 26 -39 28 -49 3 -75 11 -68 22 6 10 -14 18 -42 15 -16
-1 -23 4 -23 17 0 17 -20 24 -57 19 -7 -1 -13 5 -13 14 0 10 5 13 12 9 6 -4 8
-3 5 4 -4 5 -18 9 -32 7 -18 -2 -25 2 -23 13 2 11 -8 18 -30 23 -18 4 -36 10
-40 14 -4 5 4 5 17 2 15 -4 20 -2 14 4 -5 5 -21 10 -37 11 -21 2 -26 7 -23 20
4 14 -1 18 -21 19 -15 1 -31 1 -35 0 -5 -1 -6 3 -2 9 3 6 11 7 17 4 7 -5 8 -2
4 5 -5 7 -14 10 -21 7 -14 -5 -29 20 -19 35 3 5 3 9 -1 9 -3 0 -10 -10 -15
-22 l-9 -23 0 22 c-1 22 -2 22 -196 21 -134 0 -193 -3 -188 -11 4 -6 1 -7 -8
-1 -7 4 -42 10 -76 11 -56 3 -62 2 -57 -14 5 -17 5 -17 -6 0 -11 18 -66 25
-55 7 4 -6 11 -7 17 -4 7 5 8 2 4 -5 -6 -9 -12 -9 -25 3 -12 11 -37 16 -81 16
-58 0 -61 -1 -49 -17 13 -17 12 -17 -6 -1 -15 12 -40 16 -105 16 -47 0 -92 0
-101 1 -15 1 -21 24 -21 90 0 13 -3 19 -7 13 -4 -7 -11 -4 -20 10 -12 19 -11
20 5 14 17 -6 17 -6 -1 14 -10 11 -15 20 -11 20 4 0 2 9 -4 19 -7 14 -6 21 3
24 9 4 9 6 -1 6 -8 1 -10 6 -6 14 6 9 5 9 -7 0 -13 -10 -15 -7 -15 20 -1 78
-5 107 -15 107 -6 0 -8 -7 -5 -17 4 -10 4 -14 -1 -10 -4 4 -9 83 -11 175 -2
104 -7 171 -14 177 -8 7 -9 6 -3 -4 5 -9 4 -12 -3 -7 -7 4 -12 15 -12 25 0 12
-7 17 -22 17 -15 -1 -22 4 -21 14 2 12 -9 15 -47 16 -28 0 -50 -3 -50 -7z
m400 -743 c0 -3 -4 -8 -10 -11 -5 -3 -10 -1 -10 4 0 6 5 11 10 11 6 0 10 -2
10 -4z m150 -2 c0 -8 -19 -13 -24 -6 -3 5 1 9 9 9 8 0 15 -2 15 -3z m360 0 c0
-8 -19 -13 -24 -6 -3 5 1 9 9 9 8 0 15 -2 15 -3z m434 -690 c3 -8 2 -12 -4 -9
-6 3 -10 10 -10 16 0 14 7 11 14 -7z"/>
<path d="M1375 2690 c3 -5 8 -10 11 -10 2 0 4 5 4 10 0 6 -5 10 -11 10 -5 0
-7 -4 -4 -10z"/>
<path d="M1096 2633 c-6 -14 -5 -15 5 -6 7 7 10 15 7 18 -3 3 -9 -2 -12 -12z"/>
<path d="M1127 2644 c-3 -3 -3 -12 0 -20 4 -11 -7 -14 -51 -14 -51 0 -56 -2
-56 -22 0 -21 0 -21 -15 -2 -12 15 -14 16 -9 2 5 -14 1 -16 -16 -13 -16 3 -24
-1 -27 -15 -3 -11 -14 -20 -24 -20 -11 0 -19 -7 -19 -15 0 -8 -5 -15 -11 -15
-5 0 -7 5 -4 10 3 6 1 10 -4 10 -10 0 -16 -29 -12 -53 1 -5 -2 -6 -7 -3 -5 3
-18 -1 -28 -9 -12 -9 -14 -14 -6 -15 7 0 10 -5 7 -11 -4 -6 -14 -8 -22 -5 -9
4 -14 0 -12 -12 4 -40 -1 -54 -17 -48 -8 3 -12 2 -9 -4 3 -6 2 -10 -4 -10 -5
0 -8 -11 -7 -24 2 -16 -3 -26 -14 -29 -14 -4 -17 -15 -16 -61 1 -38 6 -60 16
-67 13 -9 12 -10 -3 -5 -16 5 -17 -1 -14 -69 2 -42 8 -79 12 -83 4 -4 6 3 3
15 -4 14 -2 20 6 17 6 -2 11 -20 11 -39 -1 -19 2 -35 6 -35 4 0 5 -10 3 -22
l-5 -23 10 23 c10 21 22 31 20 15 -6 -35 3 -61 22 -66 13 -4 18 -10 14 -17
-10 -16 17 -32 28 -17 5 8 7 7 5 -4 -3 -18 50 -71 63 -63 5 3 9 -4 9 -16 0
-12 5 -18 10 -15 6 4 7 11 4 17 -4 7 -2 8 5 4 6 -4 9 -12 6 -17 -4 -5 5 -9 19
-9 20 0 26 -5 26 -22 0 -18 2 -20 9 -8 6 8 7 18 4 24 -3 5 -1 6 6 2 6 -4 9
-12 6 -17 -7 -10 -4 -11 43 -13 18 -1 39 -11 48 -22 14 -18 15 -18 4 4 -12 24
-2 30 18 10 9 -9 12 -9 12 1 0 7 4 10 10 6 5 -3 7 -13 4 -23 -3 -9 1 -7 8 5
13 21 14 21 24 5 6 -10 22 -18 35 -19 18 -2 20 0 9 7 -8 5 -17 7 -21 4 -4 -2
-10 0 -13 5 -3 5 11 9 32 11 93 4 104 6 113 23 7 11 22 17 46 17 30 0 34 2 23
15 -7 8 -9 15 -4 16 31 2 60 11 69 21 7 8 5 9 -7 5 -10 -4 -18 -2 -18 3 0 6
11 10 23 10 30 0 40 10 27 26 -8 9 -6 12 7 10 12 -1 17 5 15 17 -3 19 14 23
21 5 5 -12 11 45 8 65 -1 5 7 11 18 14 13 3 18 11 16 25 -3 12 0 28 6 37 9 14
10 14 6 0 -3 -9 0 -16 7 -16 9 0 13 39 15 140 2 124 1 139 -13 134 -9 -4 -16
-2 -16 3 0 6 7 10 15 10 8 0 15 5 15 10 0 6 -8 10 -19 10 -11 0 -18 7 -18 18
0 49 -4 66 -11 54 -10 -15 -31 24 -26 51 1 9 -2 15 -7 11 -5 -3 -7 -11 -3 -17
3 -7 -1 -3 -10 7 -8 10 -13 23 -10 28 3 5 -3 12 -15 15 -19 5 -25 14 -23 34 1
3 -13 6 -29 7 -17 0 -36 8 -43 17 -10 14 -27 21 -58 24 -5 1 -8 7 -8 14 0 14
-40 18 -172 20 -68 1 -67 11 0 13 65 2 69 3 53 13 -9 6 -22 6 -35 -1 -15 -8
-21 -8 -24 1 -2 6 -9 8 -15 4 -19 -12 -49 -14 -42 -3 7 11 2 14 -8 4z m403
-164 c0 -5 -2 -10 -4 -10 -3 0 -8 5 -11 10 -3 6 -1 10 4 10 6 0 11 -4 11 -10z
m-763 -195 c0 -8 -4 -15 -9 -15 -4 0 -8 7 -8 15 0 8 4 15 8 15 5 0 9 -7 9 -15z"/>
<path d="M5701 2642 c-1 -7 -5 -11 -10 -7 -5 3 -13 0 -17 -6 -4 -7 -3 -9 4 -5
6 3 13 3 16 -2 4 -7 -25 -12 -81 -15 -7 0 -10 -4 -7 -9 3 -5 11 -5 17 -2 7 4
8 3 4 -1 -4 -5 -14 -10 -22 -12 -8 -2 -23 -5 -32 -7 -10 -3 -24 -5 -32 -5 -11
-1 -10 -5 5 -15 14 -11 15 -14 4 -14 -35 2 -48 -3 -53 -22 -3 -13 -10 -18 -21
-14 -12 4 -16 0 -16 -15 0 -12 -6 -21 -15 -21 -8 0 -15 -5 -15 -11 0 -5 6 -7
13 -3 6 4 3 -2 -8 -13 -11 -11 -27 -18 -35 -15 -9 3 -7 -2 5 -12 17 -15 17
-17 3 -12 -14 4 -18 -1 -18 -24 0 -17 1 -33 3 -36 1 -4 -9 -11 -22 -16 -23 -8
-24 -9 -5 -23 12 -10 13 -13 4 -10 -14 5 -16 -11 -15 -115 0 -66 3 -120 7
-120 5 0 8 -8 9 -17 0 -15 2 -15 9 2 6 16 9 10 11 -25 3 -32 8 -45 19 -45 9 0
16 -10 16 -22 2 -40 4 -43 19 -43 9 0 15 -9 15 -21 0 -14 5 -19 14 -16 8 3 16
-2 19 -14 3 -10 12 -19 21 -19 9 0 16 -6 16 -13 0 -7 9 -18 21 -25 17 -11 20
-11 13 0 -6 10 -5 11 8 1 8 -7 18 -10 22 -6 4 4 4 0 0 -10 -5 -13 0 -17 22
-18 16 -1 34 -1 41 0 6 1 15 -3 18 -9 4 -7 0 -10 -10 -8 -10 2 -20 -4 -22 -12
-3 -9 -1 -11 4 -5 9 11 42 13 58 4 14 -8 209 -4 222 4 6 4 14 1 16 -5 3 -7 6
-3 6 10 1 17 7 22 27 22 15 0 33 8 40 18 7 9 25 18 41 18 38 2 37 2 23 19 -11
13 -8 15 14 15 16 0 25 4 21 10 -3 5 5 15 19 21 14 7 22 17 19 25 -3 9 2 14
15 14 17 0 21 7 24 38 2 26 7 36 18 35 14 -3 18 12 21 80 0 9 5 17 10 17 6 0
8 -4 4 -9 -3 -5 -2 -12 3 -15 13 -8 13 46 0 62 -9 11 -9 14 -1 9 9 -6 11 18
10 94 -2 83 -5 103 -18 108 -10 4 -16 17 -15 37 1 25 -2 30 -16 26 -14 -3 -18
2 -19 24 -1 16 -1 33 0 37 1 5 -3 6 -9 2 -6 -3 -7 -11 -4 -17 4 -7 2 -8 -4 -4
-6 4 -9 13 -5 21 3 9 -1 15 -10 15 -10 0 -14 7 -11 23 2 12 2 16 -2 10 -4 -10
-9 -9 -20 2 -9 8 -12 20 -8 27 5 8 2 9 -9 5 -10 -4 -17 -2 -17 4 0 6 -6 9 -14
6 -20 -8 -28 4 -14 22 7 9 8 13 4 9 -5 -4 -16 -2 -24 5 -13 9 -14 9 -8 0 5 -9
2 -11 -9 -7 -9 4 -14 13 -11 20 6 14 1 15 -66 16 -27 0 -35 4 -31 15 4 10 9
11 19 2 9 -7 14 -8 14 -1 0 14 -28 23 -35 12 -4 -6 -11 -10 -16 -10 -6 0 -8 3
-6 8 7 10 -115 9 -130 -1 -8 -5 -13 -4 -13 2 0 6 -7 8 -15 5 -8 -4 -15 -10
-15 -16 0 -5 5 -6 12 -2 7 4 8 3 4 -4 -10 -17 -15 -15 -26 11 -5 12 -9 16 -9
9z m74 -22 c-3 -5 -12 -10 -18 -10 -7 0 -6 4 3 10 19 12 23 12 15 0z m435
-250 c0 -5 -2 -10 -4 -10 -3 0 -8 5 -11 10 -3 6 -1 10 4 10 6 0 11 -4 11 -10z
m37 -69 c0 -11 -5 -17 -9 -15 -5 3 -6 9 -3 14 3 4 -1 11 -7 13 -8 4 -7 6 4 6
11 1 16 -6 15 -18z m-1 -57 c1 -9 0 -13 -4 -10 -3 4 -7 14 -8 22 -1 9 0 13 4
10 3 -4 7 -14 8 -22z m-316 -478 c0 -2 -7 -7 -16 -10 -8 -3 -12 -2 -9 4 6 10
25 14 25 6z"/>
<path d="M2710 2439 c0 -5 5 -7 10 -4 6 3 10 8 10 11 0 2 -4 4 -10 4 -5 0 -10
-5 -10 -11z"/>
<path d="M2719 2408 c-5 -13 -3 -68 3 -68 4 0 6 16 5 35 -2 31 -4 41 -8 33z"/>
<path d="M2353 2245 c0 -8 4 -12 9 -9 5 3 6 10 3 15 -9 13 -12 11 -12 -6z"/>
<path d="M1595 1960 c3 -5 8 -10 11 -10 2 0 4 5 4 10 0 6 -5 10 -11 10 -5 0
-7 -4 -4 -10z"/>
<path d="M1687 1923 c3 -7 8 -13 12 -13 4 0 8 6 8 13 0 8 -6 14 -13 14 -7 0
-10 -6 -7 -14z"/>
<path d="M4065 1891 c-3 -5 -1 -12 5 -16 5 -3 10 1 10 9 0 18 -6 21 -15 7z"/>
<path d="M1795 1820 c-3 -5 -1 -10 4 -10 6 0 11 5 11 10 0 6 -2 10 -4 10 -3 0
-8 -4 -11 -10z"/>
<path d="M5225 1789 c-4 -6 -5 -12 -2 -15 2 -3 7 2 10 11 7 17 1 20 -8 4z"/>
<path d="M4364 1654 c-18 -14 -18 -15 4 -4 12 6 22 13 22 15 0 8 -5 6 -26 -11z"/>
<path d="M3665 1371 c-3 -5 0 -13 6 -17 8 -5 9 -3 4 6 -6 10 -4 12 9 7 10 -4
15 -3 11 3 -8 13 -22 13 -30 1z"/>
<path d="M3360 1278 c0 -4 -6 -5 -14 -2 -8 3 -17 1 -21 -5 -3 -6 0 -9 8 -5 8
3 18 0 22 -6 3 -6 3 -10 -2 -9 -32 6 -63 -3 -63 -17 0 -11 -6 -15 -20 -11 -15
4 -20 0 -21 -16 0 -12 -3 -16 -6 -9 -2 6 -9 12 -15 12 -6 0 -8 -7 -4 -15 4
-11 -2 -15 -20 -15 -18 0 -25 -4 -21 -14 3 -8 -2 -16 -14 -19 -10 -3 -19 -12
-19 -21 0 -9 -6 -16 -14 -16 -8 0 -18 -5 -22 -12 -5 -8 0 -9 14 -6 12 4 20 2
16 -3 -3 -5 -12 -9 -20 -9 -8 0 -14 -9 -14 -20 0 -11 -7 -20 -15 -20 -9 0 -15
-6 -14 -12 5 -37 -3 -56 -23 -62 -19 -5 -21 -8 -8 -16 8 -5 10 -10 5 -10 -6 0
-10 -22 -10 -51 0 -28 -3 -53 -7 -55 -5 -3 -5 -11 -1 -17 7 -11 9 -23 12 -97
1 -20 6 -30 17 -30 11 0 13 -6 9 -19 -4 -13 1 -27 15 -41 12 -12 22 -29 23
-39 0 -10 8 -24 16 -31 13 -12 14 -12 8 3 -3 9 -2 19 4 22 5 4 9 3 8 -2 -5
-27 3 -73 12 -73 5 0 7 6 3 13 -5 8 -2 8 9 -2 9 -7 17 -20 17 -28 0 -8 8 -13
18 -11 10 2 16 -2 14 -11 -3 -12 0 -12 12 -1 14 11 16 9 16 -9 0 -11 3 -20 8
-20 26 4 41 -3 36 -16 -5 -11 1 -15 20 -15 14 0 26 -6 26 -12 0 -9 3 -10 8 -2
8 13 44 15 36 2 -3 -5 -11 -5 -17 -2 -9 5 -9 3 0 -6 13 -14 231 -22 239 -8 3
4 12 5 22 2 14 -5 14 -4 3 4 -8 6 -20 8 -28 5 -7 -3 -13 -1 -13 5 0 5 8 9 18
9 88 0 102 3 102 23 0 19 19 26 55 21 6 -1 1 6 -9 14 -19 14 -17 15 25 16 24
1 36 3 27 6 -10 2 -18 9 -18 15 0 5 5 8 12 6 20 -7 48 25 48 53 0 19 5 26 18
25 10 0 16 6 16 17 -1 10 5 17 15 17 17 0 24 29 22 95 0 16 2 17 9 5 5 -8 6
-18 4 -22 -3 -4 0 -8 6 -8 7 0 9 8 5 20 -4 13 -2 20 7 20 10 0 9 3 -2 10 -8 5
-10 10 -5 10 6 0 10 38 10 94 0 78 -3 93 -15 91 -9 -2 -15 5 -16 19 -3 60 -9
86 -21 86 -7 0 -13 7 -13 15 0 8 -5 15 -11 15 -6 0 -9 7 -6 15 4 8 1 17 -5 21
-6 4 -8 3 -4 -4 3 -6 2 -14 -4 -17 -6 -4 -10 -3 -9 2 1 4 1 21 0 37 -1 24 -3
27 -16 16 -10 -9 -15 -9 -16 -1 -1 6 -2 16 -3 23 -1 14 -55 30 -69 21 -6 -4
-7 -1 -3 6 5 7 14 10 22 7 8 -3 14 -1 14 4 0 9 -23 14 -57 13 -7 -1 -13 8 -13
18 0 18 -20 25 -58 20 -7 -1 -16 6 -20 16 -6 17 -21 18 -139 19 -73 0 -133 -3
-133 -8z m545 -638 c3 -5 1 -10 -4 -10 -6 0 -11 5 -11 10 0 6 2 10 4 10 3 0 8
-4 11 -10z"/>
<path d="M2765 1230 c-3 -5 -1 -10 4 -10 6 0 11 5 11 10 0 6 -2 10 -4 10 -3 0
-8 -4 -11 -10z"/>
<path d="M2947 1049 c7 -7 15 -10 18 -7 3 3 -2 9 -12 12 -14 6 -15 5 -6 -5z"/>
<path d="M3055 990 c-3 -5 -1 -10 4 -10 6 0 11 5 11 10 0 6 -2 10 -4 10 -3 0
-8 -4 -11 -10z"/>
<path d="M3940 959 c0 -5 5 -7 10 -4 6 3 10 8 10 11 0 2 -4 4 -10 4 -5 0 -10
-5 -10 -11z"/>
</g>
</svg>
